<svg xmlns="http://www.w3.org/2000/svg" viewBox="0 0 22.373 26.994"><path d="M19.227 1.948l-.59-.402a37.186 37.186 0 0 0-.628-.415 7.648 7.648 0 0 0-9.194.9 11.443 11.443 0 0 0-3.22 5.018 7.582 7.582 0 0 0-.11 3.392 10.822 10.822 0 0 1-1.81 8.274l-.934 1.574a2.79 2.79 0 0 0-2.3 1.116 2.557 2.557 0 0 0-.4 1.876 2 2 0 0 0 .866 1.3 2.72 2.72 0 0 0 1.882.51 2.637 2.637 0 0 0 1.181 1.552 1.987 1.987 0 0 0 1.13.351 2.495 2.495 0 0 0 1.988-1.114 2.771 2.771 0 0 0 .167-2.552l1.123-1.483a10.837 10.837 0 0 1 6.968-4.77 7.55 7.55 0 0 0 3.092-1.367 11.462 11.462 0 0 0 3.427-4.816 7.666 7.666 0 0 0-2.638-8.944zM7.551 21.253l-1.29 1.701a.507.507 0 0 0-.039.555 1.94 1.94 0 0 1 .02 1.803 1.329 1.329 0 0 1-1.702.488 1.494 1.494 0 0 1-.81-1.356.508.508 0 0 0-.509-.503.525.525 0 0 0-.184.034 1.483 1.483 0 0 1-1.563-.239.987.987 0 0 1-.433-.649 1.56 1.56 0 0 1 .243-1.112 1.778 1.778 0 0 1 1.502-.668c.101 0 .167.006.177.007a.504.504 0 0 0 .499-.245l1.072-1.81a13.148 13.148 0 0 0 1.36-2.615l3.55 2.388a12.981 12.981 0 0 0-1.893 2.221zm13.342-10.656a10.511 10.511 0 0 1-3.053 4.288 6.562 6.562 0 0 1-2.689 1.192 11.436 11.436 0 0 0-4.91 2.265l-4.008-2.695a11.345 11.345 0 0 0 .25-5.402 6.587 6.587 0 0 1 .099-2.95A10.478 10.478 0 0 1 9.455 2.82a6.73 6.73 0 0 1 3.28-1.68 6.638 6.638 0 0 1 4.738.856c.046.029.305.198.596.395l.585.398a6.63 6.63 0 0 1 2.58 4.073 6.83 6.83 0 0 1-.34 3.735z" fill="#5a5a5a"/></svg>