<svg xmlns="http://www.w3.org/2000/svg" viewBox="0 0 28.26 32.268"><path d="M20.03 26.799L17.356 12.69a1.084 1.084 0 0 0 .085-1.99 4.774 4.774 0 0 0-9.536-.058 1.084 1.084 0 0 0-.06 2.048L5.248 26.6a3.229 3.229 0 0 0 .103 2.648 2.277 2.277 0 0 0 2.018.857h10.489a2.738 2.738 0 0 0 1.96-.986 2.591 2.591 0 0 0 .21-2.32zM12.672 6.81a4.113 4.113 0 0 1 4.092 3.775H8.58a4.113 4.113 0 0 1 4.093-3.775zm-4.438 4.445h8.73a.42.42 0 0 1 0 .84h-8.73a.42.42 0 0 1 0-.84zm11.04 17.471a2.084 2.084 0 0 1-1.43.708H7.37a1.665 1.665 0 0 1-1.464-.564 2.67 2.67 0 0 1-.02-2.06.348.348 0 0 0 .017-.06l2.61-13.985h8.174l2.692 14.191a2.006 2.006 0 0 1-.104 1.77z" fill="#f4782c"/><circle cx="12.599" cy="7.873" r=".484" fill="#f4782c"/><circle cx="10.805" cy="8.698" r=".484" fill="#f4782c"/><circle cx="14.633" cy="8.698" r=".484" fill="#f4782c"/><path fill="none" stroke="#f4782c" stroke-miterlimit="10" stroke-width=".587" d="M24.937 32.06L.266 7.389M8.083 23.29l-.649 3.085a1.139 1.139 0 0 0 1.114 1.373h2.741M7.41 2.771c-4.153 0-3.864 4.06-3.864 4.06h4.363m1.094 1.334H3.546L.303 23.455a1.325 1.325 0 0 0 1.217 1.543h4.413M3.546 8.165a.6.6 0 0 1-.578-.625c0-.24.024-.709.578-.709"/><rect x="13.993" y="2.477" width="8.12" height="2.35" rx="1.175" ry="1.175" fill="none" stroke="#f4782c" stroke-miterlimit="10" stroke-width=".587"/><path d="M21.173 5.041s-.052 3.14 0 4.648c.043 1.234.535 2.57 2.456 4.861 2.06 2.458 5.058 7.8-.099 12.66h-3.655M15.802 2.771v-1.55a.927.927 0 0 1 .927-.927h3.044a.927.927 0 0 1 .927.927v1.336" fill="none" stroke="#f4782c" stroke-miterlimit="10" stroke-width=".587"/><path d="M21.15 7.6h2.45a4.38 4.38 0 0 1 4.367 4.367 4.385 4.385 0 0 1-3.17 4.2" fill="none" stroke="#f4782c" stroke-miterlimit="10" stroke-width=".587"/><path d="M21.15 9.903h2.044a2.178 2.178 0 0 1 2.28 2.043 2.178 2.178 0 0 1-2.28 2.043m-8.025-9.161v2.561" fill="none" stroke="#f4782c" stroke-miterlimit="10" stroke-width=".587"/><path d="M11.478 6.53a4.544 4.544 0 0 0-1.093-2.94 3.84 3.84 0 0 0-2.923-1.113h-.056a.293.293 0 0 0 .003.587h.053a3.283 3.283 0 0 1 2.493.925 4.006 4.006 0 0 1 .935 2.549H6.82a.293.293 0 1 0 0 .587h3.802a3.107 3.107 0 0 1 .856-.596z" fill="#f4782c"/></svg>