<svg xmlns="http://www.w3.org/2000/svg" viewBox="0 0 71.396 81.414"><path d="M18.752 67.3a3.994 3.994 0 0 0-4.86 1.414.665.665 0 0 0 1.103.742 2.663 2.663 0 0 1 3.254-.927.664.664 0 1 0 .503-1.23z" fill="#f4782c"/><path d="M31.805 71.177a4.45 4.45 0 0 0 .5-1.162 5.432 5.432 0 0 0-2.662-5.8 2.92 2.92 0 0 1 1.74-.196 7.663 7.663 0 0 0 6.624-1.887 9.169 9.169 0 0 0 2.325-8.795 9.42 9.42 0 0 1 .226-4.868l.754-2.847a.664.664 0 0 0-.472-.812l-1.873-.496a.664.664 0 0 0-.813.472l-.72 2.724c-.003.009-.349.932-3.038 1.54a84.06 84.06 0 0 1-.97.211c-2.644.563-3.97.846-6.34 4.306a.638.638 0 0 0-.06.11 2.831 2.831 0 0 1-3.052 1.41 8.515 8.515 0 0 0-7.533 2.503.646.646 0 0 0-.07.081c-.008.01-.844 1.132-2.86.143-.147-.08-3.629-1.926-7.043-.775a7.657 7.657 0 0 0-4.478 4.416 6.316 6.316 0 0 0 2.152 7.546 8.218 8.218 0 0 0 2.61 1.216 10.243 10.243 0 0 0 4.564.045 6.518 6.518 0 0 0 4.907 4.778 6.373 6.373 0 0 0 6.931-2.12 8.009 8.009 0 0 0 .743.365 4.418 4.418 0 0 0-.466 1.105c-.748 2.826 1.426 5.862 4.847 6.767 3.42.905 6.81-.657 7.559-3.484.686-2.594-1.092-5.359-4.032-6.496zm6.914-23.332l.55-2.077.59.156-.57 2.157a10.996 10.996 0 0 0-.481 2.447 5.102 5.102 0 0 0-1.638-1.061c1.3-.712 1.52-1.46 1.55-1.622zM4.9 67.91a4.97 4.97 0 0 1-1.698-5.908A6.386 6.386 0 0 1 6.886 58.3c2.858-.97 5.963.666 6.016.694 2.354 1.155 3.95.211 4.504-.49a7.207 7.207 0 0 1 6.338-2.11 4.237 4.237 0 0 0 4.47-2.122c2.048-2.978 2.99-3.179 5.488-3.711l.393-.086h.004a4.003 4.003 0 0 1 4.87 2.869c.026.113.05.226.08.339a7.845 7.845 0 0 1-2.001 7.53 6.313 6.313 0 0 1-5.422 1.5 3.775 3.775 0 0 0-3.289.83 7.743 7.743 0 0 0-.878-.295 7.63 7.63 0 0 0-.54-.121 3.905 3.905 0 0 0 .396-2.41 4.104 4.104 0 0 0-2.127-2.903 6.215 6.215 0 0 0-7.408 1.214 4.105 4.105 0 0 0-1.089 3.428 3.907 3.907 0 0 0 1.115 2.127 7.073 7.073 0 0 0-3.077.321 3.865 3.865 0 0 0 .278-2.172c-.398-2.432-3.107-4.019-6.034-3.539-2.93.48-4.988 2.849-4.59 5.28a4.103 4.103 0 0 0 2.126 2.902 5.451 5.451 0 0 0 1.298.526 6.268 6.268 0 0 0 2.61.112 6.45 6.45 0 0 0 1.157-.312 4.442 4.442 0 0 0-.197.572 4.392 4.392 0 0 0-.116.654 7.85 7.85 0 0 1-6.36-1.017zm16.173-3.203a3.298 3.298 0 0 1-3.07-2.465 2.802 2.802 0 0 1 .767-2.328 4.89 4.89 0 0 1 5.763-.944 2.8 2.8 0 0 1 1.47 1.961A2.725 2.725 0 0 1 25.436 63a6.22 6.22 0 0 0-4.363 1.708zm-8.145.568a4.891 4.891 0 0 1-5.762.944 2.802 2.802 0 0 1-1.472-1.96c-.28-1.71 1.287-3.393 3.493-3.755a4.957 4.957 0 0 1 2.066.088 3.109 3.109 0 0 1 2.443 2.355 2.802 2.802 0 0 1-.768 2.328zm3.635 8.48c-2.712-.717-4.463-3.024-3.902-5.142s3.223-3.257 5.936-2.539c2.711.718 4.462 3.025 3.901 5.143s-3.223 3.257-5.935 2.539zm7.166-2.038c.017-.054.039-.105.053-.16a4.718 4.718 0 0 0-.464-3.458.648.648 0 0 0 .2-.185 2.656 2.656 0 0 1 3.254-.927.664.664 0 1 0 .502-1.23 3.987 3.987 0 0 0-4.723 1.229 6.694 6.694 0 0 0-.917-.863 5.043 5.043 0 0 1 5.485-1.59c2.712.717 4.462 3.024 3.902 5.142a3.152 3.152 0 0 1-.574 1.111 6.582 6.582 0 0 0-5.68 1.421 6.963 6.963 0 0 1-1.038-.49zm4.889 8.156c-2.713-.718-4.463-3.025-3.903-5.143s3.223-3.257 5.936-2.54c2.711.718 4.462 3.025 3.901 5.143-.56 2.118-3.223 3.258-5.934 2.54z" fill="#f4782c"/><path d="M31.372 61.312a4.734 4.734 0 0 0 .979.15 5.872 5.872 0 0 0 3.711-1.167c2.359-1.715 3.119-4.705 1.695-6.664-1.425-1.958-4.503-2.159-6.863-.443-2.358 1.715-3.118 4.705-1.695 6.664a3.863 3.863 0 0 0 2.173 1.46zm.304-7.05a4.328 4.328 0 0 1 3.557-.81 2.568 2.568 0 0 1 1.45.96c.993 1.367.364 3.524-1.403 4.808a4.538 4.538 0 0 1-2.864.914 2.733 2.733 0 0 1-2.142-1.063c-.994-1.367-.364-3.524 1.402-4.808zm-.87 19.155a4.003 4.003 0 0 0-4.86 1.414.664.664 0 0 0 .181.922.656.656 0 0 0 .201.09.665.665 0 0 0 .721-.27 2.666 2.666 0 0 1 3.254-.927.664.664 0 1 0 .503-1.23zm23.329-30.095c.082.002.165.003.25.003a12.067 12.067 0 0 0 8.084-3.098 9.6 9.6 0 0 0 2.792-7.169c0-6.673-2.68-10.49-9.157-19.711l-1.356-1.933a.725.725 0 0 0-.567-.309.754.754 0 0 0-.589.265c-.428.522-10.476 12.89-10.476 22.616 0 4.372 4.427 9.166 11.019 9.336zm-.013-30.275l.795 1.134c6.471 9.215 8.893 12.662 8.893 18.877a8.206 8.206 0 0 1-2.354 6.13 10.553 10.553 0 0 1-7.283 2.683c-5.747-.148-9.606-4.196-9.606-7.885 0-7.892 7.382-18.106 9.555-20.94z" fill="#f4782c"/><path d="M54.487 39.69a.369.369 0 0 0 .047.002.725.725 0 0 0 .046-1.449c-6.808-.432-6.676-5.783-6.666-6.036a.725.725 0 0 0-1.449-.07c-.004.07-.253 7.028 8.022 7.553zM17.398 9.795v-6.42a.757.757 0 0 1 1.513 0v6.352l3.976 2.373a5.773 5.773 0 0 1 1.636 1.35V1.09a.756.756 0 0 1 1.513 0v12.434a5.927 5.927 0 0 1 1.783-1.421l4.209-2.387V.756a.756.756 0 0 1 1.513 0v9.017a.74.74 0 0 1 0 .653v5.807a.741.741 0 0 1 .06.31 3.818 3.818 0 0 1-.06.505v16.49c0 .02-.01.036-.012.055v1.212c.014.133.31 3.272-3.241 5.945-.959.72-3.638 2.55-4.252 2.968v5.797a.756.756 0 0 1-1.513 0V43.7c-.61-.437-3.127-2.246-4.032-2.962-3.374-2.67-3.094-5.797-3.085-5.852v-1.308c0-.014-.008-.025-.008-.04v-16.5a4.278 4.278 0 0 1-.057-.497.751.751 0 0 1 .057-.301v-5.824a.738.738 0 0 1 0-.62zm5.525 21.365a5.887 5.887 0 0 1 1.128.835l.302.216v-5.582a4.258 4.258 0 0 0-2.274-3.71l-3.168-2.27v6.626a.71.71 0 0 1 .098.144 7.615 7.615 0 0 0 2.365 2.616c.303.237.807.609 1.36 1.012zm4.857.003l.235-.134c.578-.4 1.105-.769 1.422-1.004a7.388 7.388 0 0 0 2.49-2.619.726.726 0 0 1 .1-.142v-6.656l-3.481 2.365a4.137 4.137 0 0 0-2.322 3.69v5.59l.377-.257a6.063 6.063 0 0 1 1.18-.833zM22.131 13.41l-3.22-1.921v5.435a5.862 5.862 0 0 0 2.441 3.551l3 2.175.002-5.565a4.207 4.207 0 0 0-2.223-3.675zm6.415.02a4.136 4.136 0 0 0-2.322 3.69v5.573l3.235-2.229a5.85 5.85 0 0 0 2.569-3.54v-5.469zm-2.322 28.328c1.053-.724 2.522-1.74 3.154-2.216 2.832-2.13 2.655-4.48 2.642-4.655v-4.414l-3.203 1.84c-.412.285-.834.574-1.24.85a4.155 4.155 0 0 0-1.353 3.016zm-4.794-2.205c.586.464 1.929 1.443 2.923 2.162V36.14a4.303 4.303 0 0 0-1.305-3.003 245.8 245.8 0 0 1-1.156-.834l-2.974-1.797-.002 4.458c-.003.024-.216 2.427 2.514 4.588zM.057 35.808V21.613a3.8 3.8 0 0 1-.05-.436.745.745 0 0 1 .05-.28V15.92a.736.736 0 0 1 0-.567v-.693a.757.757 0 0 1 1.513 0v.588l3.368 2.01a5.061 5.061 0 0 1 1.251.993V9.576a.756.756 0 0 1 1.513 0v8.747a5.191 5.191 0 0 1 1.378-1.062l3.571-2.025V5.16a.756.756 0 0 1 1.513 0v10.177a.736.736 0 0 1 0 .593v4.953a.75.75 0 0 1 .052.294 3.602 3.602 0 0 1-.052.435v14.196c0 .016-.008.029-.009.045v1.034c.01.117.27 2.876-2.834 5.214-.798.6-2.99 2.099-3.619 2.527v6.982a.756.756 0 0 1-1.513 0v-7c-.607-.435-2.674-1.922-3.43-2.52a6.23 6.23 0 0 1-2.696-5.122v-1.13c0-.011-.006-.02-.006-.03zm4.913-2.14a5.19 5.19 0 0 1 .987.73l.087.062v-4.604A3.576 3.576 0 0 0 4.13 26.75l-2.56-1.833v5.47a.712.712 0 0 1 .074.111 6.176 6.176 0 0 0 2.004 2.211c.259.202.69.52 1.162.863zm4.077.004l.202-.116c.494-.342.943-.657 1.214-.858a6.304 6.304 0 0 0 2.112-2.213.698.698 0 0 1 .076-.107v-5.504l-2.844 1.93a3.465 3.465 0 0 0-1.942 3.086v4.613l.149-.102a5.324 5.324 0 0 1 1.033-.73zM4.182 18.568L1.57 17.009v4.487a4.934 4.934 0 0 0 2.057 2.98l2.417 1.75v-4.588a3.524 3.524 0 0 0-1.862-3.07zm5.625.02a3.464 3.464 0 0 0-1.942 3.084v4.598l2.62-1.805a4.943 4.943 0 0 0 2.166-2.975v-4.515zM7.865 42.683c.888-.611 2.036-1.407 2.546-1.79 2.385-1.797 2.245-3.769 2.234-3.926V33.35l-2.595 1.49c-.352.242-.711.489-1.057.724a3.481 3.481 0 0 0-1.128 2.517zm-4.166-1.78c.47.372 1.512 1.134 2.345 1.737v-4.598a3.59 3.59 0 0 0-1.086-2.5 168 168 0 0 1-.991-.714l-2.392-1.446-.002 3.655a4.784 4.784 0 0 0 2.126 3.866z" fill="#f4782c"/><path fill="none" stroke="#f4782c" stroke-linecap="round" stroke-linejoin="round" stroke-width=".7" d="M43.379 64.951l11.004-14.679 13.362 14.679m-8.025-8.816l3.466-3.976 7.86 8.489"/></svg>