<svg xmlns="http://www.w3.org/2000/svg" viewBox="0 0 34 26.607"><path d="M26.339 12.162a43.523 43.523 0 0 1-1.694-4.803 9.915 9.915 0 0 1-.22-3.576 2.328 2.328 0 0 1 1.391-2.074l.332-1.242a43.145 43.145 0 0 0-7.707 0l.332 1.242a2.328 2.328 0 0 1 1.39 2.074 9.915 9.915 0 0 1-.22 3.576 43.523 43.523 0 0 1-1.693 4.803 25.464 25.464 0 0 0-1.53 10.241s-.145 1.198 2.164 1.198h6.82c2.31 0 2.165-1.198 2.165-1.198a25.464 25.464 0 0 0-1.53-10.241z" fill="none" stroke="#f4782c" stroke-miterlimit="10" stroke-width=".587"/><path fill="none" stroke="#f4782c" stroke-miterlimit="10" stroke-width=".587" d="M19.929 12.746v2.73l2.365 1.366 2.365-1.366v-2.73l-2.365-1.365-2.365 1.365zm-.629 6.701h5.989m-5.032 1.417h4.074M20.29 3.783h4.009"/><rect x="4" y="6.81" width="18.25" height="19.504" rx="1.832" ry="1.832" fill="#fff" stroke="#f4782c" stroke-miterlimit="10" stroke-width=".587"/><path fill="none" stroke="#f4782c" stroke-miterlimit="10" stroke-width=".587" d="M4 10.622h18.25"/><circle cx="7.862" cy="13.797" r="1.237" fill="none" stroke="#f4782c" stroke-miterlimit="10" stroke-width=".587"/><circle cx="12.877" cy="13.797" r="1.237" fill="none" stroke="#f4782c" stroke-miterlimit="10" stroke-width=".587"/><circle cx="17.892" cy="13.797" r="1.237" fill="none" stroke="#f4782c" stroke-miterlimit="10" stroke-width=".587"/><circle cx="7.862" cy="18.21" r="1.237" fill="none" stroke="#f4782c" stroke-miterlimit="10" stroke-width=".587"/><circle cx="12.877" cy="18.21" r="1.237" fill="none" stroke="#f4782c" stroke-miterlimit="10" stroke-width=".587"/><circle cx="17.892" cy="18.21" r="1.237" fill="none" stroke="#f4782c" stroke-miterlimit="10" stroke-width=".587"/><circle cx="7.862" cy="22.622" r="1.237" fill="none" stroke="#f4782c" stroke-miterlimit="10" stroke-width=".587"/><circle cx="12.877" cy="22.622" r="1.237" fill="none" stroke="#f4782c" stroke-miterlimit="10" stroke-width=".587"/><circle cx="17.892" cy="22.622" r="1.237" fill="none" stroke="#f4782c" stroke-miterlimit="10" stroke-width=".587"/><path fill="none" stroke="#f4782c" stroke-miterlimit="10" stroke-width=".587" d="M7.063 8.435V5.622m2.228 2.813V5.622m2.228 2.813V5.622m2.228 2.813V5.622m2.228 2.813V5.622m2.228 2.813V5.622M0 19.447h4m23.903 0H34"/></svg>