<svg data-name="Layer 1" xmlns="http://www.w3.org/2000/svg" width="24.72" height="24.966"><defs><clipPath id="a" transform="translate(-1.365 -4.443)"><path transform="rotate(-45 15.292 15.203)" fill="none" d="M.912 8.083h28.76v14.24H.912z"/></clipPath></defs><g fill="#c2c2c2" clip-path="url(#a)"><path d="M21.959 5.216a.74.74 0 1 0-1.047 0 .74.74 0 0 0 1.047 0"/><path d="M7.682 24.81a.496.496 0 0 0 .849-.396c-.17-1.358-.276-2.85-.382-4.427l-.162-2.185A13.76 13.76 0 0 0 24.25.803a.47.47 0 0 0-.332-.332 13.77 13.77 0 0 0-17.02 16.2c-.955-.05-1.945-.078-2.942-.113s-2.362-.07-3.458-.135a.48.48 0 0 0-.36.135.47.47 0 0 0 0 .664.52.52 0 0 0 .092.092zM23.373 1.313a12.86 12.86 0 0 1-.898 8.59l-7.693-7.692a12.9 12.9 0 0 1 8.591-.898m-12.14 3.415a12.71 12.71 0 0 1 2.65-2.03l8.104 8.104a12.8 12.8 0 0 1-14.12 6.017 12.87 12.87 0 0 1 3.415-12.14M3.914 17.476c1.053.035 2.114.064 3.104.106l.177 2.44c.07 1.089.148 2.142.24 3.14l-5.784-5.785 2.256.078"/></g></svg>