<svg data-name="Layer 1" xmlns="http://www.w3.org/2000/svg" viewBox="0 0 26.612 26.833"><defs><clipPath id="a" transform="translate(-1.427 -5.09)"><path transform="rotate(-45 16.47 16.66)" fill="none" d="M1 9h30.939v15.318H1z"/></clipPath></defs><g clip-path="url(#a)" fill="#c2c2c2"><path d="M23.682 5.601a.795.795 0 1 0-1.126.002.795.795 0 0 0 1.126-.002"/><path d="M8.325 26.684a.51.51 0 0 0 .584.097.504.504 0 0 0 .28-.52c-.184-1.463-.29-3.066-.404-4.763a224.12 224.12 0 0 0-.172-2.35 14.804 14.804 0 0 0 17.5-18.29.508.508 0 0 0-.361-.361A14.81 14.81 0 0 0 7.444 17.923a164.65 164.65 0 0 0-3.174-.115c-1.27-.038-2.54-.076-3.72-.14a.512.512 0 0 0-.387.149l-.013.013a.51.51 0 0 0-.001.72.56.56 0 0 0 .115.088zM25.202 1.407a13.839 13.839 0 0 1-.966 9.238l-8.27-8.27a13.876 13.876 0 0 1 9.236-.968M12.166 5.053A13.676 13.676 0 0 1 15.02 2.87l8.724 8.724A13.772 13.772 0 0 1 8.52 18.089a13.85 13.85 0 0 1 3.646-13.036M4.24 18.825c1.137.033 2.272.066 3.342.119.07.893.13 1.769.187 2.622.078 1.174.155 2.304.255 3.379l-6.21-6.2c.793.032 1.609.056 2.426.08"/></g></svg>