<svg data-name="Layer 1" xmlns="http://www.w3.org/2000/svg" viewBox="0 0 456.279 456.281"><path d="M228.14 41.105c60.916 0 68.13.233 92.188 1.33 22.243 1.015 34.323 4.733 42.362 7.856a70.688 70.688 0 0 1 26.232 17.066 70.66 70.66 0 0 1 17.066 26.232c3.123 8.04 6.841 20.12 7.856 42.362 1.097 24.058 1.33 31.272 1.33 92.188 0 60.918-.233 68.132-1.33 92.188-1.015 22.244-4.733 34.325-7.856 42.364a70.674 70.674 0 0 1-17.066 26.232 70.687 70.687 0 0 1-26.232 17.065c-8.039 3.124-20.12 6.842-42.362 7.855-24.054 1.099-31.267 1.33-92.188 1.33s-68.134-.231-92.188-1.33c-22.242-1.013-34.323-4.73-42.362-7.855a70.687 70.687 0 0 1-26.232-17.065 70.717 70.717 0 0 1-17.065-26.232c-3.124-8.04-6.842-20.12-7.857-42.364-1.097-24.056-1.33-31.27-1.33-92.188 0-60.916.233-68.13 1.33-92.188 1.015-22.242 4.733-34.323 7.857-42.362a70.703 70.703 0 0 1 17.065-26.232A70.688 70.688 0 0 1 93.59 50.29c8.04-3.123 20.12-6.84 42.362-7.856 24.058-1.097 31.272-1.33 92.188-1.33m0-41.105c-61.96 0-69.728.261-94.061 1.373C109.794 2.482 93.21 6.338 78.7 11.977a111.81 111.81 0 0 0-40.409 26.314A111.825 111.825 0 0 0 11.978 78.7c-5.64 14.512-9.497 31.096-10.604 55.38C.263 158.411 0 166.18 0 228.138c0 61.961.262 69.729 1.373 94.062 1.107 24.283 4.963 40.867 10.604 55.38a111.824 111.824 0 0 0 26.314 40.408A111.81 111.81 0 0 0 78.7 444.302c14.51 5.639 31.094 9.495 55.377 10.604 24.334 1.11 32.103 1.373 94.062 1.373 61.96 0 69.729-.263 94.062-1.373 24.283-1.109 40.867-4.965 55.378-10.604a111.812 111.812 0 0 0 40.408-26.314 111.826 111.826 0 0 0 26.314-40.409c5.641-14.512 9.497-31.096 10.605-55.38 1.11-24.332 1.372-32.1 1.372-94.061 0-61.96-.261-69.727-1.372-94.06-1.108-24.283-4.964-40.867-10.605-55.38a111.827 111.827 0 0 0-26.314-40.408 111.812 111.812 0 0 0-40.408-26.314c-14.51-5.639-31.095-9.495-55.378-10.604C297.869.26 290.099 0 228.14 0" fill="#fff"/><path d="M228.14 110.988A117.153 117.153 0 0 0 110.988 228.14 117.152 117.152 0 0 0 228.14 345.292 117.152 117.152 0 0 0 345.292 228.14 117.153 117.153 0 0 0 228.14 110.988m0 193.199a76.047 76.047 0 0 1-76.047-76.047 76.047 76.047 0 0 1 76.047-76.047 76.047 76.047 0 0 1 76.047 76.047 76.047 76.047 0 0 1-76.047 76.047m149.159-197.829a27.377 27.377 0 0 1-27.377 27.377 27.378 27.378 0 0 1-27.377-27.377 27.377 27.377 0 0 1 27.377-27.377 27.376 27.376 0 0 1 27.377 27.377" fill="#fff"/><path fill="none" d="M0 .002h456.278V456.28H0z"/></svg>