<svg id="Слой_1" data-name="Слой 1" xmlns="http://www.w3.org/2000/svg" viewBox="0 0 558.78 192.84"><defs><style>.cls-1{fill:#f4782c}</style></defs><path class="cls-1" d="M410 137.08c-1.22-5.88 1.07-10.16 6.4-13 4.79-2.59 10.05-2.55 15.28-2.25a31.19 31.19 0 0 1 10.89 2.17c6 2.6 9.42 7.09 9.93 13.46.48 5.93.33 11.91.43 17.87 0 2.61 0 5.23.05 7.84.12 3.2 2 5.24 5.3 5.89s6.58-.76 7.71-3.49a8.42 8.42 0 0 0 .39-3c.12-7.44-.07-14.89.38-22.31.49-8 4.79-13.51 12.28-16.41 6.12-2.37 12.52-2.46 19-2A26.62 26.62 0 0 1 511 126a16.85 16.85 0 0 1 7.68 11.33 53.34 53.34 0 0 1 .73 8.4c.17 6.36.08 12.72.3 19.08.13 3.73 1.81 7 4 9.88-.12.17-.17.32-.25.34-5.14 1.17-10.37 1.68-15.52.5-3.54-.82-6.3-3-6.76-7-.26-2.27-.76-4.54-.82-6.81-.15-6.7-.11-13.4-.19-20.1 0-3-.81-5.86-3.76-7.31-4-2-9.37-.75-10.41 5.26a37.5 37.5 0 0 0-.52 6.78c.09 8.06.29 16.11.51 24.17a18.21 18.21 0 0 0 .59 2.81c.19 1 .12 1.76-1.28 1.76-13-.08-25.9-.08-38.85-.2a13.78 13.78 0 0 1-8-2.58 2.52 2.52 0 0 0-3 0 29.85 29.85 0 0 1-20.73 3.05 17.37 17.37 0 0 1-8.47-4.57c-3.93-3.75-4.16-12.25-.76-16.5a24.22 24.22 0 0 1 10.81-7.38c3.74-1.4 7.64-2.41 11.38-3.83a14.25 14.25 0 0 0 4.87-2.93 3.57 3.57 0 0 0-1.38-6.14 14.36 14.36 0 0 0-9-.59c-4.03 1.12-8.05 2.4-12.17 3.66zm23.81 16.07c0-1.79-.62-2.22-2.32-1.58a33.31 33.31 0 0 0-3.89 1.69c-3 1.62-5.68 3.57-6.83 7.12-1.08 3.35.17 6.37 3.5 7.46a13.4 13.4 0 0 0 9.3-.59c.41-.16.74-1.18.69-1.77-.21-2.63-.45-10.86-.46-12.33zm-118.44 21.59c1.68-11 .73-21.84 1-32.67a23.72 23.72 0 0 1 2.82-11.61 16.84 16.84 0 0 1 13-8.43c5.71-.76 11.37-.54 16.68 1.92a27.31 27.31 0 0 1 5.33 3.57c1 .83 1.82 1 2.81.08 6.1-5.59 13.52-6.37 21.28-5.7a17.43 17.43 0 0 1 11.71 5.66 17.81 17.81 0 0 1 4.6 11.72c.25 7.83.22 15.67.37 23.5a17.5 17.5 0 0 0 1.94 8.54c.71 1.25 1.63 2.39 2.56 3.72a39 39 0 0 1-11.15 1 16.48 16.48 0 0 1-5.67-.73c-4.53-1.77-6.73-5.37-6.75-10.22 0-7.5.05-15-.05-22.49a23.19 23.19 0 0 0-.91-6.17c-.69-2.33-2.26-3-5.13-2.91-2.25.1-3.85 1.2-4.3 3.39a32.3 32.3 0 0 0-.64 6.24c-.06 9.66 0 19.31 0 29 0 2.88-.05 2.93-3 2.92h-13c-1.61 0-2.59-.37-2.44-2.28.1-1.29-.12-2.6-.13-3.91-.07-9.94-.09-19.88-.2-29.82 0-3.76-2.16-5.69-5.79-5.53-2.77.12-4.67 2.25-4.74 5.61-.16 7.26-.22 14.53-.29 21.8v12.61c0 .77 0 1.49-1.09 1.48h-18.06a3.45 3.45 0 0 1-.76-.29zm-65.72-55.57l-5.33 5.1-17.13 16.48c-1.59 1.53-1.51 2.58 0 4.65 3 4.1 5.76 8.37 8.85 12.38a140.74 140.74 0 0 0 10.11 12.08c3.1 3.21 6.78 5.86 10.23 8.79-1.47.13-3.17.42-4.88.42-4.65 0-9.32.09-13.94-.29-5.61-.47-10.06-3.46-13.48-7.76-3.17-4-6-8.24-8.94-12.37-2-2.84-4.06-5.68-6.11-8.5a13.45 13.45 0 0 0-1.42-1.36c-.13 2-.35 3.6-.31 5.19.16 5.79.4 11.57.62 17.35a3.82 3.82 0 0 0 0 .51c.55 3.21.55 3.21-2.75 3.21h-18.09a4.91 4.91 0 0 1 0-.82c1.11-5.26 1.05-10.59 1.06-15.92V100.2c0-2.27 0-2.28 2.28-2.28h14.18c2.58 0 2.62 0 2.63 2.51v38.17a3.28 3.28 0 0 0 0 .85 9.62 9.62 0 0 0 .5 1.19 3.88 3.88 0 0 0 1.07-.57c4.24-4.48 8.58-8.88 12.66-13.51 5.79-6.55 13-9.18 21.57-8.31 2.13.21 4.27.31 6.4.46zM34.71 141.08c.56-.52 1.15-1 1.68-1.56 5.2-5.44 10.25-11 15.62-16.3 4.14-4 9.43-5.38 15.16-5.05 3.1.18 6.2.27 9.48.4-2.31 2.39-4.38 4.62-6.55 6.75Q62 133.23 53.86 141c-1.25 1.19-1 2.29-.21 3.46 3.72 5.34 7.39 10.72 11.23 16a80.89 80.89 0 0 0 12.25 13.58 10.62 10.62 0 0 1 .78.92c-2.05.25-3.82.57-5.59.65-4.86.22-9.78.94-14.54-.62a17.58 17.58 0 0 1-9.26-6.83c-3.44-5-7-9.9-10.5-14.84a30.91 30.91 0 0 0-3.43-4.22 103.47 103.47 0 0 0 .63 25.79c-.63.05-1.12.13-1.61.12-6 0-11.93-.11-17.89-.11-1.36 0-1.67-.43-1.57-1.81.37-4.92.74-9.86.77-14.79.1-19.37.05-38.75.08-58.12 0-2.17.16-2.3 2.32-2.31 4.89 0 9.77.07 14.66 0 1.58 0 2.06.5 2.05 2-.05 11.93 0 23.86 0 35.79v5.19zm145.68-21.97c-1.36 1.37-2.7 2.76-4.08 4.12q-5.93 5.81-11.89 11.59c-2.22 2.14-4.5 4.21-6.73 6.33a1.89 1.89 0 0 0-.38 2.79A209 209 0 0 0 174 166.79c2.4 2.83 5.13 5.38 7.89 8.25-2.67.26-5.26.67-7.86.73-4.11.1-8.23.57-12.29-.88a19.52 19.52 0 0 1-9.6-7.16q-5-7-10-14.08c-.72-1-1.29-2.13-2-3.14a12.54 12.54 0 0 0-1.44-1.51l-.46.18v3.13c.24 6.91.45 13.83.77 20.74.06 1.42-.37 2-1.78 2h-17.38c-1.5 0-1.85-.49-1.74-2 .46-6 1-12.1 1-18.16.14-18.29.09-36.57.05-54.86 0-1.66.55-2.16 2.17-2.13 4.94.08 9.88.06 14.82 0 1.51 0 2.13.46 2.13 2.05q-.06 19.08 0 38.16a24.76 24.76 0 0 0 .29 2.71 19.14 19.14 0 0 0 2.15-1.71c2-2.09 3.87-4.29 5.9-6.35 2.61-2.65 4.93-5.57 7.64-8.11 4.63-4.33 10-6.74 16.45-6.55 3.15.09 6.3.33 9.45.5z" transform="translate(-14.16 -41.37)"/><path class="cls-1" d="M279.24 177.08c-3.49-.68-7.1-1-10.43-2.13a28.89 28.89 0 0 1-13.42-8.76 26.92 26.92 0 0 1-6.09-12.87c-1.67-10.53 1.68-19.24 9.84-26a29.78 29.78 0 0 1 18.62-6.84c9.85-.28 18.08 3.22 24.46 10.46a25.38 25.38 0 0 1 6.14 22.49c-1.71 9-6.87 15.25-14.67 19.52a28.88 28.88 0 0 1-14.37 3.59zm10.27-30.36c-.23-1.51-.52-4.51-1.16-7.43a9.76 9.76 0 0 0-8.59-8 10 10 0 0 0-10 6.71c-1.79 5.53-1.52 11.13-1 16.7a13.1 13.1 0 0 0 4.15 9 9.39 9.39 0 0 0 14.62-3.54c1.41-3.84 1.87-7.85 1.98-13.44zm-184.63-2.96v25a31.9 31.9 0 0 0 .63 4.71c.16 1-.22 1.52-1.25 1.52H86.03c-1 0-1.7-.34-1.56-1.62 1.67-15 .36-30 .77-45v-1.53c0-1 .43-1.3 1.34-1.3h16.69c1.29 0 1.29.79 1.29 1.7v16.52zm.05-36.24c0 4.73-4.1 9.76-8.11 9.86-7.74.19-11.67-3.3-11.72-10.4 0-4.76 4.72-9.37 9.61-9.4a10 10 0 0 1 10.22 9.94zM572.91 78v18a2 2 0 0 1-1.27 2.15c-11.07 5.48-22.1 11-33.17 16.51a2.61 2.61 0 0 1-2 0c-11.17-5.48-22.3-11.06-33.47-16.6a1.55 1.55 0 0 1-1-1.59v-37a1.51 1.51 0 0 1 1-1.59c11.24-5.46 22.45-11 33.69-16.41a2.15 2.15 0 0 1 1.65 0c11.15 5.41 22.28 10.88 33.44 16.29a1.8 1.8 0 0 1 1.15 1.93c-.04 6.18-.02 12.31-.02 18.31zm-60.11.09v11.66a2 2 0 0 0 .88 1.47q11.45 5.67 23 11.2a2 2 0 0 0 1.54 0q11.5-5.57 22.95-11.25a1.84 1.84 0 0 0 .86-1.35q.08-11.8 0-23.61a1.84 1.84 0 0 0-.87-1.34q-11.39-5.62-22.85-11.12a2.19 2.19 0 0 0-1.67 0c-7.63 3.67-15.24 7.41-22.87 11.09a1.52 1.52 0 0 0-1 1.6c.05 3.92.03 7.81.03 11.7z" transform="translate(-14.16 -41.37)"/><path class="cls-1" d="M515.37 78.07v-9.83a1.79 1.79 0 0 1 1.16-1.93q9.93-4.77 19.8-9.67a2.24 2.24 0 0 1 2.22-.05q9.94 4.92 19.93 9.74a1.7 1.7 0 0 1 1.13 1.81q-.06 10 0 20a1.72 1.72 0 0 1-1.15 1.8q-10 4.86-19.88 9.83a2.18 2.18 0 0 1-2.21 0q-9.92-5-19.88-9.83a1.7 1.7 0 0 1-1.15-1.94c.06-3.28.03-6.61.03-9.93zm43.58.05v-9.69a1.61 1.61 0 0 0-1-1.72c-6.53-3.15-13-6.35-19.57-9.49a2.34 2.34 0 0 0-1.79 0c-6.54 3.14-13 6.35-19.57 9.5a1.63 1.63 0 0 0-1.07 1.71v19.38a1.54 1.54 0 0 0 1 1.61c6.55 3.21 13.08 6.47 19.65 9.65a2.3 2.3 0 0 0 1.77 0c6.52-3.17 13-6.41 19.53-9.58a1.7 1.7 0 0 0 1.1-1.83c-.09-3.17-.05-6.36-.05-9.54z" transform="translate(-14.16 -41.37)"/><path class="cls-1" d="M541.18 78.49v2.33h6.34a2.32 2.32 0 0 1 2.36 3.18 3.82 3.82 0 0 0-.24 1.92A3.77 3.77 0 0 0 550.9 88c.37.24 1.3-.38 2.17-.69a10.81 10.81 0 0 1-.78 3.14 3.2 3.2 0 0 1-2.29 1.41 2.66 2.66 0 0 1-2.11-1.4 34.43 34.43 0 0 1-.8-5.48 6.82 6.82 0 0 1 .13-1.36h-6v3.48h1.9a4.38 4.38 0 0 1 .11-1.39 1.59 1.59 0 0 1 .91-.87c.21-.05.72.45.83.79a5.24 5.24 0 0 1-1.97 5.81 9.67 9.67 0 0 0-11.15 0 5.55 5.55 0 0 1-1.85-5.92 1.24 1.24 0 0 1 .93-.67c.28 0 .63.51.75.85a5.61 5.61 0 0 1 .1 1.43h2v-3.52h-6c0 1.68.05 3.34 0 5a5.18 5.18 0 0 1-.58 1.86 2.45 2.45 0 0 1-4.56-.12 24 24 0 0 1-.65-2.84c.94.14 1.88.59 2.51.32 1-.46 1.09-1.64.92-2.71-.06-.37-.16-.73-.2-1.11-.05-.58-.29-1.29 0-1.72a2.46 2.46 0 0 1 2.44-1.5c2 .13 4.1 0 6.24 0v-2.3h-4.94a1.31 1.31 0 0 1-1.48-.93c-.47-1.22-1.07-2.39-1.61-3.59-1.06-2.34-.16-3.74 2.39-3.76h1.5v-2.85c-1.27 0-2.52.07-3.77 0a1.65 1.65 0 0 1-1.22-.78 1.92 1.92 0 0 0-2.1-1.47h7l-.17-.36c.68-.51 1.32-1.34 2.05-1.44.51-.07 1.16.85 1.75 1.33l-.21.42H542l-.19-.35c.63-.5 1.25-1.39 1.89-1.4s1.29.85 1.94 1.33l-.2.37h7.14a2.21 2.21 0 0 0-2.27 1.74c-.09.3-.78.58-1.21.61-1.21.08-2.42 0-3.75 0v2.86H547c2.35 0 3.31 1.49 2.34 3.61-.55 1.19-1.14 2.36-1.61 3.59a1.46 1.46 0 0 1-1.66 1.1c-1.61-.08-3.19-.03-4.89-.03zm.89-10.94h-9.25v2.57h9.25zm-14.65 4.92c1.28 3.76 1.28 3.76 4.82 3.75h.56c1.16.09 1.2-.5.92-1.26-.89-.49-2.16.42-2.81-1.15a11.25 11.25 0 0 0 2 0c.34-.07.63-.44.94-.67-.28-.21-.56-.6-.84-.61-1.84-.08-3.66-.05-5.6-.05zM541.18 75c-.28.95.08 1.29 1 1.23s2 0 2.95 0a1.26 1.26 0 0 0 .93-.4c.53-1 .94-2.09 1.48-3.33h-5.68c-.32 0-.61.59-.92.9l.3.33 2.69.17c-.57 1.54-1.87.52-2.75 1.1zm3.1 104a11.46 11.46 0 1 1 11.46-11.46A11.47 11.47 0 0 1 544.28 179zm0-21.66a10.2 10.2 0 1 0 10.2 10.2 10.21 10.21 0 0 0-10.2-10.15z" transform="translate(-14.16 -41.37)"/><path class="cls-1" d="M539.23 160.85a28.36 28.36 0 0 1 4.14-.27c2.3 0 3.79.33 4.83 1.07a3 3 0 0 1 1.31 2.49c0 1.73-1.39 2.88-3.15 3.35v.06a3.49 3.49 0 0 1 2.45 2.65 17.48 17.48 0 0 0 1.29 3.6h-2.23a14.45 14.45 0 0 1-1.11-3.13c-.5-1.81-1.39-2.49-3.35-2.55h-2v5.68h-2.16zm2.16 6h2.21c2.3 0 3.77-1 3.77-2.49 0-1.69-1.56-2.43-3.84-2.45a11.24 11.24 0 0 0-2.13.16z" transform="translate(-14.16 -41.37)"/><path d="M16.54 195.29h4.23v12.24h2.57a9.77 9.77 0 0 0 5.35-1.19 5 5 0 0 0 2.12-3.73v-.2a10.2 10.2 0 0 1 2-5.35 5.08 5.08 0 0 1 4.1-1.78h1.82v3.84h-.9a2.52 2.52 0 0 0-2 .82 4.61 4.61 0 0 0-.95 2.47l-.22 1.82a6.17 6.17 0 0 1-3.36 5l-.77.35.68.33a8.86 8.86 0 0 1 4.52 5.51l2.22 7.31q.44 1.47.77 2.27a5.74 5.74 0 0 0 .68 1.26h-4.5q-.2-.51-.46-1.31c-.18-.54-.41-1.28-.7-2.23l-1.67-5.49a7.69 7.69 0 0 0-3.2-4.47 11.68 11.68 0 0 0-6.23-1.42h-1.87v14.92h-4.23zm35.25 31.57a8.67 8.67 0 0 1-5.8-1.79 6.64 6.64 0 0 1 .78-10.31q2.87-1.94 7.92-1.94h3.6V211a3.61 3.61 0 0 0-1.18-3 6.14 6.14 0 0 0-3.81-.94 4.54 4.54 0 0 0-2.9.87 3.27 3.27 0 0 0-1.23 2.4H45a6.06 6.06 0 0 1 2.33-4.75q2.08-1.5 6.29-1.5a9.71 9.71 0 0 1 6.26 1.92 6.13 6.13 0 0 1 2.38 5v7.5q0 3.07.15 5.13a8.49 8.49 0 0 0 .44 2.61h-3.77a3.21 3.21 0 0 1-.37-1.45c-.07-.51-.12-1.13-.15-1.85a10.05 10.05 0 0 1-.9 1.34 7.2 7.2 0 0 1-5.87 2.58zm6.5-11.1h-3.64a9.36 9.36 0 0 0-5.06 1.1 3.67 3.67 0 0 0-1.68 3.29 3.37 3.37 0 0 0 1.18 2.76 5.15 5.15 0 0 0 3.36 1 5.5 5.5 0 0 0 4.36-1.65 7.21 7.21 0 0 0 1.47-4.85zM83 226.25h-4v-9.69h-1.3a6.2 6.2 0 0 0-3.55.9 5.3 5.3 0 0 0-2 2.84l-.79 2.42-1.21 3.54h-4.27a7 7 0 0 0 .67-1.25c.23-.53.5-1.29.82-2.28l1.16-3.6a6 6 0 0 1 3.16-3.65 8.41 8.41 0 0 1 1.8-.64l-.7-.26a3.76 3.76 0 0 1-2.44-2.81l-.35-2.13a2.48 2.48 0 0 0-.63-1.34 1.66 1.66 0 0 0-1.22-.44h-.64v-3.18h1.27a4.19 4.19 0 0 1 3.15 1.24 7.26 7.26 0 0 1 1.68 3.72l.15.85a3.31 3.31 0 0 0 1.41 2.25 5.91 5.91 0 0 0 3.21.71H79v-8.77h4v8.77h.61a5.9 5.9 0 0 0 3.2-.71 3.31 3.31 0 0 0 1.4-2.25l.15-.85a7.19 7.19 0 0 1 1.64-3.72 4.21 4.21 0 0 1 3.16-1.24h1.27v3.18h-.64a1.7 1.7 0 0 0-1.23.44 2.43 2.43 0 0 0-.64 1.34l-.39 2.11a3.81 3.81 0 0 1-2.44 2.83l-.7.26a8.22 8.22 0 0 1 1.8.64 5.93 5.93 0 0 1 3.16 3.63l1.16 3.6a28 28 0 0 0 .82 2.28 7 7 0 0 0 .67 1.25h-4.28l-1.21-3.54-.79-2.42a5.3 5.3 0 0 0-2-2.84 6.2 6.2 0 0 0-3.55-.9H83zm19.55-21.57h14.5v18.6h1.67v7.86h-4v-4.89h-12.85v4.89h-4v-7.86h2.15a30.17 30.17 0 0 0 1.16-4.1 69.91 69.91 0 0 0 1.37-14.5zm10.53 3h-6.63a63 63 0 0 1-1.29 11.54 26.3 26.3 0 0 1-1.16 4.1h9.08zm10.38-3h4v7.7l3.33.07q5.42 0 7.93 1.65a5.74 5.74 0 0 1 2.51 5.17q0 3.82-2.29 5.4t-7.94 1.58h-7.59zm4 18.58H131a8.38 8.38 0 0 0 4.52-.93 3.35 3.35 0 0 0 1.4-3 3.24 3.24 0 0 0-1.47-3 9.25 9.25 0 0 0-4.74-.92h-3.33zm16.94-18.58h4v21.56h-4zm14.79 21.57h-4.48v-21.57h4v16.18l10.16-16.18h4.48v21.56h-4v-16.16zm4.81-24.07a7 7 0 0 1-5-1.68 6.53 6.53 0 0 1-1.87-4.77h3a4.47 4.47 0 0 0 1.05 2.91 4.64 4.64 0 0 0 5.62-.11 3.75 3.75 0 0 0 1-2.8h3a6.3 6.3 0 0 1-1.74 4.81 7.13 7.13 0 0 1-5.06 1.64zm33 2.5h14.5v18.6h1.67v7.86h-4v-4.89h-12.84v4.89h-4v-7.86h2.15a30.17 30.17 0 0 0 1.16-4.1 69.91 69.91 0 0 0 1.36-14.5zm10.53 3h-6.63a63 63 0 0 1-1.29 11.54 26.3 26.3 0 0 1-1.16 4.1h9.08zM227 226.86a9.63 9.63 0 0 1-7.46-2.94q-2.7-2.94-2.7-8.12 0-5.49 2.71-8.61a9.33 9.33 0 0 1 7.45-3.13q4.59 0 7 2.71t2.41 7.89v1.45H221a11.1 11.1 0 0 0 1.4 5.59 5 5 0 0 0 4.5 2.17 5.25 5.25 0 0 0 3.56-1.21 5 5 0 0 0 1.66-3.33h4.1a8.21 8.21 0 0 1-2.82 5.59 9.79 9.79 0 0 1-6.4 1.94zm5.33-13.71a8.26 8.26 0 0 0-1.23-4.35q-1.3-1.75-4.43-1.75a5 5 0 0 0-4.23 2 8.13 8.13 0 0 0-1.4 4.06zm9.46-8.47h4v8.84h10.66v-8.84h4v21.56h-4v-9.67h-10.69v9.67h-4zm25.01 0h4v7.7l3.33.07q5.42 0 7.93 1.65a5.74 5.74 0 0 1 2.51 5.17q0 3.82-2.29 5.4t-7.87 1.58h-7.61zm4 18.58h3.62a8.38 8.38 0 0 0 4.52-.93 3.35 3.35 0 0 0 1.4-3 3.24 3.24 0 0 0-1.47-3 9.25 9.25 0 0 0-4.74-.92h-3.33zm20.26-2.26h4.78v5.22h-4.78z" transform="translate(-14.16 -41.37)"/><path d="M319.86 195.29h4.23v12.24h2.57a9.77 9.77 0 0 0 5.35-1.19 5 5 0 0 0 2.12-3.73v-.2a10.2 10.2 0 0 1 2-5.35 5.08 5.08 0 0 1 4.1-1.78H342v3.84h-.9a2.52 2.52 0 0 0-2 .82 4.61 4.61 0 0 0-.95 2.47l-.22 1.82a6.17 6.17 0 0 1-3.36 5l-.77.35.68.33a8.86 8.86 0 0 1 4.52 5.51l2.22 7.31q.44 1.47.77 2.27a5.74 5.74 0 0 0 .68 1.26h-4.5q-.2-.51-.46-1.31c-.18-.54-.41-1.28-.7-2.23l-1.67-5.49a7.69 7.69 0 0 0-3.2-4.47 11.68 11.68 0 0 0-6.23-1.42h-1.81v14.92h-4.23zm29.91 28.51q-2.78-3.06-2.78-8.46t2.78-8.28a11.27 11.27 0 0 1 15.3 0q2.76 3 2.77 8.28t-2.77 8.46a11.09 11.09 0 0 1-15.3 0zm12.23-2.15a10.52 10.52 0 0 0 1.62-6.29 10.09 10.09 0 0 0-1.62-6.14 5.88 5.88 0 0 0-9.13 0 10.09 10.09 0 0 0-1.62 6.14 10.52 10.52 0 0 0 1.62 6.29 5.79 5.79 0 0 0 9.13 0zm26.37-16.97h7.85q4.48 0 6.73 1.34a4.35 4.35 0 0 1 2.26 4 4.43 4.43 0 0 1-2.26 4.06 7.71 7.71 0 0 1-1.71.75 8.61 8.61 0 0 1 2.5 1 5.5 5.5 0 0 1 .18 8.92q-2.19 1.48-6.54 1.48h-9zm4 8.82h3.88a7.18 7.18 0 0 0 3.59-.7 2.32 2.32 0 0 0 1.17-2.13 2.49 2.49 0 0 0-1.17-2.26 6.8 6.8 0 0 0-3.59-.75h-3.88zm0 9.76h4.76a6.45 6.45 0 0 0 3.65-.8 2.94 2.94 0 0 0 1.13-2.58 2.73 2.73 0 0 0-1.35-2.46 7.34 7.34 0 0 0-3.92-.86h-4.28zm36.98-4.34a8.49 8.49 0 0 1-2.54 5.95 9.24 9.24 0 0 1-6.36 2q-5.29 0-7.84-2.83t-2.61-8.69q0-5.29 2.77-8.28a9.92 9.92 0 0 1 7.64-3 9.3 9.3 0 0 1 6.28 2 7.23 7.23 0 0 1 2.43 5.53h-4.06a4.44 4.44 0 0 0-1.41-3.33 5.28 5.28 0 0 0-3.65-1.21 5 5 0 0 0-4.38 2q-1.4 2-1.39 6.31 0 4.48 1.36 6.49a4.93 4.93 0 0 0 4.41 2 5.45 5.45 0 0 0 3.85-1.2 5.53 5.53 0 0 0 1.48-3.76zm14.74 7.94a9.63 9.63 0 0 1-7.46-2.94q-2.7-2.94-2.7-8.12 0-5.49 2.71-8.61a9.33 9.33 0 0 1 7.45-3.13q4.59 0 7 2.71t2.41 7.89v1.45h-15.42a11.1 11.1 0 0 0 1.4 5.59 5 5 0 0 0 4.5 2.17 5.25 5.25 0 0 0 3.56-1.21 5 5 0 0 0 1.66-3.33h4.1a8.21 8.21 0 0 1-2.82 5.59 9.79 9.79 0 0 1-6.39 1.94zm5.33-13.71a8.26 8.26 0 0 0-1.23-4.35q-1.3-1.75-4.43-1.75a5 5 0 0 0-4.23 2 8.13 8.13 0 0 0-1.4 4.06zm13.25 13.1h-4v-21.57h6.45l7.27 18.19 7-18.19h6.45v21.56h-4v-18.57l-7.38 18.58h-4.26l-7.56-18.64zm37.44 7.96h-4l3.29-7.86-9.11-21.65h4.28l6.94 17.09 6.58-17.09h4.2zm18.8-13.21h4.78v5.22h-4.78z" transform="translate(-14.16 -41.37)" fill="#f4772d"/></svg>