<svg xmlns="http://www.w3.org/2000/svg" viewBox="0 0 422.92 290.91"><g data-name="6" fill="#222" stroke="#000" stroke-miterlimit="10" stroke-width="13"><path d="M384.19 284.41H38.73A32.26 32.26 0 0 1 6.5 252.18V38.73A32.26 32.26 0 0 1 38.73 6.5H384.2a32.26 32.26 0 0 1 32.23 32.23v213.45a32.26 32.26 0 0 1-32.24 32.23zM38.72 20.5a18.25 18.25 0 0 0-18.23 18.23v213.45a18.25 18.25 0 0 0 18.23 18.23h345.47a18.25 18.25 0 0 0 18.23-18.23V38.73a18.25 18.25 0 0 0-18.23-18.23z"/><path d="M211.46 184.12a7 7 0 0 1-3.87-1.17L12.91 53.88a7.002 7.002 0 0 1 7.74-11.67l190.82 126.5L402.3 42.21a7.002 7.002 0 0 1 7.74 11.67L215.3 182.95a7 7 0 0 1-3.84 1.17z"/></g></svg>