<svg data-name="Layer 1" xmlns="http://www.w3.org/2000/svg" viewBox="0 0 22.373 26.994"><defs><clipPath id="a"><path fill="none" d="M0 0h22.373v26.994H0z"/></clipPath></defs><g clip-path="url(#a)"><path d="M19.227 1.949l-.591-.403a36.956 36.956 0 0 0-.627-.415 7.647 7.647 0 0 0-9.194.9A11.432 11.432 0 0 0 5.594 7.05a7.593 7.593 0 0 0-.11 3.392 10.824 10.824 0 0 1-1.81 8.274l-.933 1.574A2.793 2.793 0 0 0 .44 21.406a2.557 2.557 0 0 0-.398 1.876 1.995 1.995 0 0 0 .865 1.299 2.72 2.72 0 0 0 1.882.51 2.64 2.64 0 0 0 1.182 1.552 1.986 1.986 0 0 0 1.129.35 2.495 2.495 0 0 0 1.988-1.113 2.773 2.773 0 0 0 .167-2.552l1.122-1.483a10.836 10.836 0 0 1 6.97-4.77 7.561 7.561 0 0 0 3.092-1.367 11.467 11.467 0 0 0 3.426-4.816 7.738 7.738 0 0 0 .367-4.225 7.66 7.66 0 0 0-3.005-4.718M7.55 21.253l-1.29 1.7a.507.507 0 0 0-.04.556 1.941 1.941 0 0 1 .022 1.803 1.329 1.329 0 0 1-1.703.488 1.495 1.495 0 0 1-.81-1.356.51.51 0 0 0-.693-.47 1.482 1.482 0 0 1-1.562-.237.989.989 0 0 1-.434-.65 1.56 1.56 0 0 1 .243-1.112 1.779 1.779 0 0 1 1.502-.668c.102 0 .167.006.177.007a.504.504 0 0 0 .499-.245l1.072-1.81a13.197 13.197 0 0 0 1.359-2.615l3.55 2.389a12.99 12.99 0 0 0-1.892 2.22m13.342-10.656a10.505 10.505 0 0 1-3.054 4.288 6.536 6.536 0 0 1-2.688 1.192 11.43 11.43 0 0 0-4.91 2.265l-4.007-2.695a11.362 11.362 0 0 0 .25-5.402 6.59 6.59 0 0 1 .097-2.951A10.502 10.502 0 0 1 9.455 2.82a6.722 6.722 0 0 1 3.28-1.681 6.638 6.638 0 0 1 4.738.856c.046.029.305.199.596.395l.586.398a6.629 6.629 0 0 1 2.579 4.074 6.822 6.822 0 0 1-.341 3.734" fill="#c2c2c2"/></g></svg>