<svg data-name="Layer 1" xmlns="http://www.w3.org/2000/svg" viewBox="0 0 116.89 36.89"><path d="M31.2 14.517c-.163 1.54-.797 3.389-2.034 3.53h-.106c-.387 0-2.36-.313-3.251-6.444-.671-4.64-.275-7.37 1.115-7.676 1.18-.263 1.836 1.068 1.874 3.71v.153l1.468-.172.49-4.107-.031-.043a4.423 4.423 0 0 0-3.77-1.74 4.198 4.198 0 0 0-3.416 2.686c-.778 1.749-.978 4.266-.594 7.495.89 7.496 3.392 9.057 5.334 9.057a3.861 3.861 0 0 0 .456-.028 4.332 4.332 0 0 0 3.417-2.317l.478-4.373-1.406.166zm.505-10.465l3.489-.847 1.374 16.509 2.908-.244-1.375-16.508 3.052.287.384-2.661-9.466.778-.366 2.686zM4.235 5.947l-.013-.003L0 7.07l4.869 18.288 2.795-.737L3.332 8.396a4.5 4.5 0 0 1 .675-.237c1.874-.497 3.195.424 3.794 2.667.653 2.433-.093 4.225-1.992 4.79l.877 1.727c3.308-1.008 4.938-4.153 4.001-7.651-.918-3.426-3.026-4.65-6.452-3.745zm12.139 7.649l3.473-.378v-2.567l-3.835.987-.999-5.469 4.662-.29.1-2.845-8.042 1.455 3.32 18.245.025.134 8.033-1.461.097-2.849-5.666 1.59-1.168-6.552zM70.45.426l-5.218 18.426 2.642.134 1.068-4.588 3.466.175.625 4.685 3.107.156L73.05.557zm-1.015 11.849l1.621-7.44h.172l.896 7.574zm34.064-8.086l-2.312-.368-6.096 10.602-.215-.093 2.011-11.221-2.883-.453-2.985 18.282-.022.134 2.295.369 6.187-10.765.216.068-2.305 11.215-.028.138 2.889.468 3.226-18.229.022-.147zM47.546.004a4.243 4.243 0 0 0-3.636 2.383c-.937 1.693-1.38 4.185-1.277 7.405.219 6.627 1.805 9.457 5.31 9.457h.224c1.955-.066 5.194-1.421 4.919-9.791-.225-7.049-1.727-9.576-5.54-9.454zm1.767 16.643a1.412 1.412 0 0 1-1.068.456c-1.52 0-2.401-2.405-2.686-7.352-.228-3.972.053-6.246.887-7.148a1.327 1.327 0 0 1 .978-.453h.047c1.546 0 2.398 2.336 2.686 7.352.24 3.994-.032 6.264-.844 7.145zM86.431 1.756l-1.824 16.24-3.123-.312 1.468-16.159v-.134l-2.905-.287-1.689 18.566 7.776.775-.468 3.354 1.611.159 1.893-5.512-1.665-.166 1.824-16.24-2.898-.284zm22.146 5.104l-.013-.004a5.725 5.725 0 0 0-2.405 3.842 5.07 5.07 0 0 0 1.743 5.365l-5.465 7.046 3.273.8 5.346-8.377-.046-.219c-1.612-.709-2.25-2.276-1.746-4.3.556-2.233 1.705-3.054 3.626-2.583a4.182 4.182 0 0 1 .671.225l-4.02 16.193 2.811.687 4.538-18.27-3.616-.887a5.95 5.95 0 0 0-4.697.481zM60.438.07h-4.4v18.79h2.891V2.206a4.514 4.514 0 0 1 .722-.056c1.949 0 2.98 1.227 2.98 3.548 0 2.517-1.185 4.06-3.168 4.122l.4 1.893a6.012 6.012 0 0 0 5.846-6.371C65.703 1.794 63.98.07 60.438.07z" fill="#e30613"/><path d="M62.861 29.223a3.902 3.902 0 0 0-4.188 4.022c0 2.69 1.968 3.645 3.807 3.645a3.98 3.98 0 0 0 4.226-4.06 3.55 3.55 0 0 0-3.845-3.607zm-.047 6.811c-1.074 0-2.33-.8-2.33-3.048 0-2.155 1.094-2.923 2.118-2.923 1.458 0 2.295 1.124 2.295 3.082-.006 1.727-.84 2.89-2.083 2.89zm-9.4-6.811a3.904 3.904 0 0 0-4.188 4.022c0 2.69 1.967 3.645 3.807 3.645a3.98 3.98 0 0 0 4.225-4.06 3.538 3.538 0 0 0-3.844-3.607zm-.047 6.811c-1.074 0-2.33-.8-2.33-3.048 0-2.155 1.093-2.923 2.118-2.923 1.458 0 2.292 1.124 2.292 3.082-.003 1.727-.84 2.89-2.083 2.89zm-5.556-.868v1.515h-6.58v-.8l.09-.047c2.861-1.515 4.491-3.039 4.491-4.41 0-.743-.574-1.118-1.37-1.118a2.96 2.96 0 0 0-2.271 1.09l-.122.135-.565-.5.081-.116a4.297 4.297 0 0 1 3.57-1.873c1.561 0 2.498.765 2.498 2.045 0 1.92-2.186 3.326-3.435 3.973l.018.072h3.592zm24.763-4.45a4.088 4.088 0 0 0-2.399.786l-.046-.04c.278-2.161 1.577-4.21 3.71-4.21a2.498 2.498 0 0 1 .78.119l.197.096.144-.75-.14-.03a3.929 3.929 0 0 0-1.206-.203c-2.71 0-5.456 2.13-5.456 6.196 0 2.626 1.418 4.197 3.788 4.197a3.745 3.745 0 0 0 3.714-3.479c0-1.583-1.268-2.683-3.086-2.683zm-.54 5.309c-1.225 0-2.012-1.25-2.012-3.164v-.284a3.189 3.189 0 0 1 2.102-.834 1.686 1.686 0 0 1 1.712 1.908c0 1.178-.637 2.38-1.802 2.38z" fill="#1d1d1b"/></svg>