<svg xmlns="http://www.w3.org/2000/svg" viewBox="0 0 386.49 399.29"><g data-name="9" fill="#222" stroke="#000" stroke-miterlimit="10" stroke-width="13"><path d="M306.25 204.92a7 7 0 0 1-7-7A109 109 0 0 0 191.64 88.99a7 7 0 0 1 .09-14h.09a122.92 122.92 0 0 1 109.12 69.38 121.78 121.78 0 0 1 12.3 53.56 7 7 0 0 1-6.99 6.99z"/><path d="M372.99 204.92a7 7 0 0 1-7-7A175.79 175.79 0 0 0 191.67 22.25a7 7 0 0 1 .06-14h.04a189.65 189.65 0 0 1 169.22 107 187.86 187.86 0 0 1 19 82.63 7 7 0 0 1-7 7.04zm-75.46 187.84c-27.8 0-60.41-12.37-96.94-36.76-37.78-25.23-70.59-57.19-91.46-79.56-39.7-42.55-70.76-87.18-87.46-125.64-9.93-22.88-15-43.91-15.17-62.51-.16-21.16 6.07-39.32 18.5-54l13.84-17a29.28 29.28 0 0 1 44.13-1.5l49.68 53.25a28.34 28.34 0 0 1 1.47 36.75l-22.66 30.4c2.16 6.45 12.5 28.67 61.26 80.93 48.47 52 70.11 64 76.53 66.7l31.86-20.48a28.18 28.18 0 0 1 36.56 4l49.68 53.25a29.28 29.28 0 0 1-4.55 43.92l-17.86 12.58c-13.39 10.42-29.34 15.67-47.41 15.67zm-236-372.29a15.23 15.23 0 0 0-11.86 5.64L35.78 43.19l-.1.12c-43.92 51.66 14.41 149.37 83.64 223.57 65.45 70.08 132.01 111.88 178.21 111.88 14.93 0 28-4.32 38.92-12.83l.28-.21 18-12.67a15.28 15.28 0 0 0 2.38-22.92l-49.68-53.25a14.18 14.18 0 0 0-18.45-2l-.2.14-34.7 22.3a7 7 0 0 1-4.43 1.08c-3.69-.34-25.26-5.42-87.16-71.77-62.39-66.87-65.56-88.44-65.56-92.08a7 7 0 0 1 1.39-4.19l24.65-33.07.15-.19a14.26 14.26 0 0 0-.7-18.55L72.77 25.36a15.12 15.12 0 0 0-11.19-4.86z"/></g></svg>