<svg xmlns="http://www.w3.org/2000/svg" viewBox="0 0 22.549 24.977"><path d="M5.056 24.96a.508.508 0 0 0 .5-.143 23.736 23.736 0 0 1 7.84-5.36c.046.05.087.101.136.147a4.124 4.124 0 0 0 6.827-4.041 2.294 2.294 0 0 0 1.02-4.292 3.276 3.276 0 0 0-1.393-4.418q-.11-.057-.223-.106a4.466 4.466 0 1 0-7.976-3.966 3.694 3.694 0 0 0-.914-.387 3.788 3.788 0 0 0-3.668 1.018 2.346 2.346 0 0 0-2.97-.141 2.308 2.308 0 0 0-.754 1.026 2.327 2.327 0 0 0-1.157 4.509q.074.019.15.033a3.432 3.432 0 0 0 1.035 2.998 3.306 3.306 0 0 0 .763.537c-.17.997-1.672 3.966-4.174 7.375a.51.51 0 0 0 .061.671l4.676 4.419a.513.513 0 0 0 .221.122zM13.41 2.106a3.45 3.45 0 0 1 5.139 4.599.508.508 0 0 0-.09.503.515.515 0 0 0 .395.327 2.257 2.257 0 0 1 1.359 3.665.517.517 0 0 0-.047.505.578.578 0 0 0 .39.329 1.274 1.274 0 0 1 .479 2.25 1.29 1.29 0 0 1-1.28.164.509.509 0 0 0-.642.71 3.106 3.106 0 1 1-5.805.93 2.998 2.998 0 0 1 .72-1.51.509.509 0 0 0-.251-.831.543.543 0 0 0-.088-.015 1.82 1.82 0 0 1-1.105-.49c.028-.052.042-.107.067-.16.036-.078.068-.155.098-.235a3.06 3.06 0 0 0 .114-.398c.017-.08.036-.158.047-.24a3.012 3.012 0 0 0 .021-.443c0-.07.005-.14 0-.21a3.069 3.069 0 0 0-.119-.644 2.332 2.332 0 0 0 2.54-2.71 2.364 2.364 0 0 0-.45-1.035 2.328 2.328 0 0 0-1.2-.82 3.857 3.857 0 0 0-.032-.824c-.013-.09-.047-.174-.066-.263a3.775 3.775 0 0 0-.14-.528c-.037-.1-.093-.19-.138-.285a3.72 3.72 0 0 0-.23-.445c-.06-.095-.14-.177-.21-.267a3.509 3.509 0 0 0-.255-.323 3.474 3.474 0 0 1 .779-1.306zM8.14 14.241a3.016 3.016 0 0 0 1 .5 3.029 3.029 0 0 0 2.817-.724 2.814 2.814 0 0 0 .835.539 4.029 4.029 0 0 0-.361.874l-5.072 1.667zm-4.545-5.71a.508.508 0 0 0-.536-.678 1.313 1.313 0 0 1-1.111-2.202 1.336 1.336 0 0 1 1.637-.217.509.509 0 0 0 .773-.408 1.288 1.288 0 0 1 .497-.949 1.305 1.305 0 0 1 1.796.236 1.18 1.18 0 0 1 .105.157.497.497 0 0 0 .434.264.51.51 0 0 0 .447-.241 2.157 2.157 0 0 1 .266-.338 2.824 2.824 0 0 1 3.821-.193c.018.016.08.07.1.083a2.805 2.805 0 0 1 .81 2.614.507.507 0 0 0 .095.418.513.513 0 0 0 .382.197 1.3 1.3 0 0 1 .983.51 1.334 1.334 0 0 1 .255.591 1.294 1.294 0 0 1-.236.993 1.318 1.318 0 0 1-1.653.394.51.51 0 0 0-.578.08 2.209 2.209 0 0 0-.255.276.51.51 0 0 0-.023.588 2.022 2.022 0 0 1-.08 2.307 1.164 1.164 0 0 1-.143.174 2.023 2.023 0 0 1-3.494-1.356.51.51 0 0 0-.265-.436.532.532 0 0 0-.115-.046.509.509 0 0 0-.396.06 2.46 2.46 0 0 1-2.902-.312 2.413 2.413 0 0 1-.614-2.567zm1.636 4.168a3.428 3.428 0 0 0 1.743-.108 3.029 3.029 0 0 0 .346.794l-1.193 4.357a.508.508 0 0 0 .14.503.502.502 0 0 0 .222.124.511.511 0 0 0 .287-.009l5.475-1.799a4.107 4.107 0 0 0 .515 2.041 25.416 25.416 0 0 0-7.597 5.152l-3.986-3.767c1.897-2.635 3.677-5.666 4.048-7.288z" fill="#c2c2c2"/><path d="M9.259 19.627a.509.509 0 1 0-.445-.915l-.002.001a17.042 17.042 0 0 0-4.032 3.059.51.51 0 0 0 .701.738 16.138 16.138 0 0 1 3.778-2.883z" fill="#c2c2c2"/></svg>