<svg id="Layer" xmlns="http://www.w3.org/2000/svg" viewBox="0 0 22.37343 26.99435"><title>meat-icon</title><path d="M340.11653,551.24943l-.5908-.4024c-.3037-.2051-.5762-.3828-.627-.415a7.64819,7.64819,0,0,0-9.1943.9004,11.44257,11.44257,0,0,0-3.2207,5.0175,7.58166,7.58166,0,0,0-.1104,3.3916,10.82182,10.82182,0,0,1-1.8095,8.2745l-.93358,1.5742a2.79089,2.79089,0,0,0-2.30082,1.1162,2.55654,2.55654,0,0,0-.3984,1.876,2.00028,2.00028,0,0,0,.86522,1.2998,2.72076,2.72076,0,0,0,1.88178.5097,2.63678,2.63678,0,0,0,1.1817,1.5518,1.9868,1.9868,0,0,0,1.1289.3516,2.49532,2.49532,0,0,0,1.9883-1.1143,2.77123,2.77123,0,0,0,.167-2.5518l1.123-1.4834a10.83687,10.83687,0,0,1,6.9688-4.7695,7.54944,7.54944,0,0,0,3.0918-1.3672,11.46205,11.46205,0,0,0,3.42672-4.8164,7.66589,7.66589,0,0,0-2.63772-8.9433Zm-11.6767,19.3046-1.2891,1.7012a.50747.50747,0,0,0-.0391.5547,1.93974,1.93974,0,0,1,.0205,1.8027,1.32892,1.32892,0,0,1-1.7031.4883,1.494,1.494,0,0,1-.8096-1.3564.50788.50788,0,0,0-.5087-.503.52525.52525,0,0,0-.1846.0342,1.483,1.483,0,0,1-1.5625-.2383.98745.98745,0,0,1-.4336-.6494,1.56093,1.56093,0,0,1,.24322-1.1123,1.77833,1.77833,0,0,1,1.50188-.6679c.1016,0,.167.0058.1768.0068a.5036.5036,0,0,0,.499-.2451l1.07232-1.8096a13.1476,13.1476,0,0,0,1.35928-2.6152l3.5508,2.3886A12.98116,12.98116,0,0,0,328.43983,570.554Zm13.3427-10.6562a10.511,10.511,0,0,1-3.0537,4.2881,6.56223,6.56223,0,0,1-2.6885,1.1924,11.43589,11.43589,0,0,0-4.91008,2.2646l-4.00782-2.6953a11.34544,11.34544,0,0,0,.25-5.4014,6.58681,6.58681,0,0,1,.0986-2.9511,10.47809,10.47809,0,0,1,2.8731-4.4737,6.72912,6.72912,0,0,1,3.2802-1.6806,6.6375,6.6375,0,0,1,4.7383.8564c.0459.0283.3047.1982.5957.3945l.585.3985a6.6291,6.6291,0,0,1,2.58,4.0732A6.83033,6.83033,0,0,1,341.78253,559.89783Z" transform="translate(-320.88927 -549.30098)" style="fill:#5a5a5a"/></svg>