<svg id="l1" xmlns="http://www.w3.org/2000/svg" viewBox="0 0 71.39633 81.4141"><title>feature1</title><path d="M26.78355,272.26044a3.99377,3.99377,0,0,0-4.85966,1.41448.66453.66453,0,0,0,1.10272.74189,2.66279,2.66279,0,0,1,3.25432-.92676.66419.66419,0,1,0,.50263-1.22961Z" transform="translate(-8.03165 -204.9609)" style="fill:#f4782c"/><path d="M39.83652,276.1375a4.45053,4.45053,0,0,0,.5-1.16188,5.43191,5.43191,0,0,0-2.66174-5.79965,2.92032,2.92032,0,0,1,1.74075-.19639,7.6635,7.6635,0,0,0,6.62271-1.8865,9.16868,9.16868,0,0,0,2.32505-8.79479,9.42018,9.42018,0,0,1,.22648-4.86813l.75364-2.84751a.66443.66443,0,0,0-.47222-.81216l-1.873-.49572a.66443.66443,0,0,0-.81216.47222l-.7198,2.72347c-.00349.00937-.34961.93208-3.039,1.53994-.34653.07861-.66809.14749-.97051.212-2.64259.56294-3.96914.84594-6.33978,4.306a.63822.63822,0,0,0-.06018.1092,2.83134,2.83134,0,0,1-3.05129,1.411,8.51542,8.51542,0,0,0-7.533,2.50227.64591.64591,0,0,0-.06973.08124c-.00829.01072-.84436,1.1315-2.8605.14261-.14627-.07948-3.62848-1.92581-7.04219-.775a7.65671,7.65671,0,0,0-4.47836,4.41626,6.31638,6.31638,0,0,0,2.15172,7.546,8.21756,8.21756,0,0,0,2.61083,1.21632,10.24292,10.24292,0,0,0,4.56347.04474,6.51834,6.51834,0,0,0,4.90741,4.77828,6.3732,6.3732,0,0,0,6.931-2.12095,8.00894,8.00894,0,0,0,.74252.36584,4.4177,4.4177,0,0,0-.46613,1.10467c-.748,2.8262,1.42629,5.862,4.847,6.7673,3.41973.90508,6.81109-.65765,7.55908-3.48385C44.555,280.04037,42.77676,277.27511,39.83652,276.1375ZM46.7508,252.806l.54968-2.07689.58938.156-.56975,2.15654a10.99555,10.99555,0,0,0-.48071,2.4469,5.10163,5.10163,0,0,0-1.63823-1.061C46.50181,253.71628,46.72211,252.96854,46.7508,252.806ZM12.93171,272.87116a4.97,4.97,0,0,1-1.69837-5.90835,6.38568,6.38568,0,0,1,3.68436-3.7015c2.85784-.97055,5.96262.6655,6.01584.69391,2.35443,1.15491,3.95082.21074,4.504-.49006a7.20662,7.20662,0,0,1,6.33844-2.11027,4.2369,4.2369,0,0,0,4.46976-2.1221c2.04785-2.97783,2.99043-3.17881,5.48813-3.71128.12254-.02609.264-.05789.39324-.08583l.00341.00009a4.003,4.003,0,0,1,4.87074,2.86871c.025.113.04857.226.079.33916a7.845,7.845,0,0,1-2.001,7.53,6.3127,6.3127,0,0,1-5.4218,1.50021,3.77509,3.77509,0,0,0-3.28868.83089,7.74262,7.74262,0,0,0-.87825-.296c-.17993-.04762-.36039-.08711-.54032-.121a3.90487,3.90487,0,0,0,.39626-2.41072,4.1037,4.1037,0,0,0-2.12664-2.90166,6.21471,6.21471,0,0,0-7.40832,1.2138,4.10461,4.10461,0,0,0-1.0889,3.428,3.90719,3.90719,0,0,0,1.11457,2.12685,7.07257,7.07257,0,0,0-3.077.321,3.865,3.865,0,0,0,.27893-2.17175c-.39849-2.43278-3.1074-4.01894-6.03491-3.53928-2.92922.48-4.98781,2.84876-4.58972,5.28a4.10335,4.10335,0,0,0,2.12645,2.90161,5.45119,5.45119,0,0,0,1.29772.5259,6.26793,6.26793,0,0,0,2.61064.11215,6.45049,6.45049,0,0,0,1.15643-.31128,4.44153,4.44153,0,0,0-.19734.57178,4.39238,4.39238,0,0,0-.11565.65354A7.85071,7.85071,0,0,1,12.93171,272.87116Zm16.17316-3.20357a3.29848,3.29848,0,0,1-3.07109-2.46485,2.80223,2.80223,0,0,1,.76826-2.32781,4.89037,4.89037,0,0,1,5.76215-.94394,2.80091,2.80091,0,0,1,1.47082,1.9612,2.72481,2.72481,0,0,1-.56744,2.06774A6.22015,6.22015,0,0,0,29.10487,269.6676Zm-8.14524.56831a4.89119,4.89119,0,0,1-5.76225.94432,2.80156,2.80156,0,0,1-1.47186-1.96107c-.27965-1.7083,1.28722-3.39266,3.49343-3.754a4.95672,4.95672,0,0,1,2.06526.08728,3.10876,3.10876,0,0,1,2.44368,2.35571A2.80218,2.80218,0,0,1,20.95963,270.23591Zm3.63542,8.48092c-2.71247-.7179-4.46294-3.02475-3.90238-5.14275s3.223-3.25691,5.93548-2.539c2.71172.7177,4.46238,3.0246,3.90182,5.1426S27.30678,279.43453,24.59506,278.71683Zm7.166-2.03916c.0165-.054.03855-.10523.05307-.16012a4.71847,4.71847,0,0,0-.46484-3.45779.64769.64769,0,0,0,.19969-.18489,2.65581,2.65581,0,0,1,3.25418-.927.66419.66419,0,1,0,.50263-1.22961,3.98673,3.98673,0,0,0-4.723,1.22844,6.694,6.694,0,0,0-.91706-.86309,5.04342,5.04342,0,0,1,5.48484-1.59048c2.71172.7177,4.46219,3.02455,3.90163,5.14255a3.15193,3.15193,0,0,1-.57393,1.11165,6.582,6.582,0,0,0-5.68008,1.42075A6.96263,6.96263,0,0,1,31.76109,276.67767Zm4.88825,8.15621c-2.71247-.7179-4.463-3.02537-3.90247-5.14318.56056-2.118,3.22319-3.25686,5.93567-2.539,2.71153.71765,4.46219,3.02455,3.90163,5.14255C42.02365,284.4121,39.36087,285.55152,36.64933,284.83388Z" transform="translate(-8.03165 -204.9609)" style="fill:#f4782c"/><path d="M39.40368,266.27254a4.73364,4.73364,0,0,0,.97879.14947,5.87171,5.87171,0,0,0,3.71114-1.16589c2.35895-1.71549,3.11875-4.70527,1.69485-6.66454-1.425-1.95815-4.50254-2.15835-6.86248-.44292-2.358,1.71574-3.11865,4.70489-1.69485,6.66454A3.86252,3.86252,0,0,0,39.40368,266.27254Zm.30362-7.0491a4.32785,4.32785,0,0,1,3.55724-.81087,2.56847,2.56847,0,0,1,1.44938.96018c.99375,1.36713.3645,3.52427-1.40238,4.80838a4.53783,4.53783,0,0,1-2.86345.914,2.73325,2.73325,0,0,1-2.14242-1.06308C37.31212,262.66494,37.94118,260.50775,39.7073,259.22345Z" transform="translate(-8.03165 -204.9609)" style="fill:#f4782c"/><path d="M38.83764,278.37743a4.00311,4.00311,0,0,0-4.85956,1.4141.66405.66405,0,0,0,.181.922.65593.65593,0,0,0,.20053.091.665.665,0,0,0,.72137-.271,2.66611,2.66611,0,0,1,3.254-.92643.66419.66419,0,1,0,.50263-1.22961Z" transform="translate(-8.03165 -204.9609)" style="fill:#f4782c"/><path d="M62.16641,248.28267c.08206.00184.165.00275.25021.00275a12.06742,12.06742,0,0,0,8.084-3.09725,9.6,9.6,0,0,0,2.79215-7.16891c0-6.67363-2.68072-10.49068-9.15683-19.71157l-1.35679-1.93285a.72482.72482,0,0,0-.56651-.30877.7543.7543,0,0,0-.58872.2649c-.42791.5219-10.47654,12.88943-10.47654,22.61589C51.14741,243.31866,55.57484,248.1125,62.16641,248.28267Zm-.01322-30.27495.79524,1.13393c6.47152,9.21484,8.8934,12.66253,8.8934,18.8776a8.2058,8.2058,0,0,1-2.35378,6.1297,10.553,10.553,0,0,1-7.28383,2.68274c-5.7464-.14741-9.60585-4.19594-9.60585-7.88485C52.59838,231.05466,59.98024,220.841,62.1532,218.00772Z" transform="translate(-8.03165 -204.9609)" style="fill:#f4782c"/><path d="M62.51869,244.6514a.36881.36881,0,0,0,.047.002.72531.72531,0,0,0,.04553-1.44913c-6.80709-.4325-6.67565-5.78385-6.66537-6.03608a.72543.72543,0,0,0-1.44913-.07086C54.493,237.16729,54.24393,244.12638,62.51869,244.6514Z" transform="translate(-8.03165 -204.9609)" style="fill:#f4782c"/><path d="M25.42992,214.75623v-6.42047a.75653.75653,0,0,1,1.51306,0v6.35177l3.97576,2.373a5.77253,5.77253,0,0,1,1.63594,1.35105V206.05019a.75643.75643,0,0,1,1.51286,0V218.4848a5.92656,5.92656,0,0,1,1.78292-1.42134l4.20888-2.3868v-8.95978a.75643.75643,0,0,1,1.51286,0v9.01723a.74093.74093,0,0,1,0,.65292v5.80678a.74133.74133,0,0,1,.06085.30918,3.81759,3.81759,0,0,1-.06085.50544v16.49122c0,.01915-.00948.03534-.01106.0541l-.00079,1.21186c.01383.13287.31036,3.2721-3.24067,5.94479-.95892.721-3.63795,2.54969-4.25214,2.96825v5.79682a.75643.75643,0,0,1-1.51286,0v-5.81459c-.61044-.43693-3.12707-2.246-4.03246-2.96233-3.37382-2.67052-3.09369-5.79711-3.08421-5.85121v-1.30841c-.00079-.01362-.0081-.02527-.0081-.03929v-16.5005a4.27761,4.27761,0,0,1-.0569-.49754.75111.75111,0,0,1,.0569-.30089v-5.82416A.73759.73759,0,0,1,25.42992,214.75623Zm5.52518,21.36512a5.88693,5.88693,0,0,1,1.128.83456c.09957.07127.207.14867.30127.2158l.00079-5.5821A4.258,4.258,0,0,0,30.11095,227.88l-3.168-2.26933v6.62516a.70985.70985,0,0,1,.09759.14393,7.61488,7.61488,0,0,0,2.36511,2.61642c.303.23692.80681.60869,1.36075,1.01127Zm4.85705.003.2343-.13465c.57844-.39941,1.10511-.76881,1.42219-1.00416a7.38764,7.38764,0,0,0,2.49-2.61859.726.726,0,0,1,.10075-.14156V225.5686l-3.48188,2.36548a4.13656,4.13656,0,0,0-2.32185,3.69067V237.213c.11656-.079.25129-.17078.37673-.25588A6.06311,6.06311,0,0,1,35.81214,236.12431Zm-5.649-17.75422L26.943,216.44884v5.43521a5.86177,5.86177,0,0,0,2.441,3.55108l3.00044,2.17456.00079-5.56493A4.20733,4.20733,0,0,0,30.1631,218.37009Zm6.41436.01915a4.136,4.136,0,0,0-2.32185,3.69067v5.57263l3.23494-2.22826a5.84922,5.84922,0,0,0,2.56879-3.54042v-5.46877Zm-2.32185,28.32829c1.053-.7236,2.52157-1.7404,3.15414-2.21582,2.83173-2.13033,2.65453-4.48,2.64149-4.65435v-4.41407l-3.20214,1.83951c-.41249.2849-.83486.57395-1.23965.84976a4.155,4.155,0,0,0-1.35383,3.01623Zm-4.794-2.20417c.58634.46378,1.92871,1.44227,2.9228,2.16172l.00079-5.5746a4.30309,4.30309,0,0,0-1.30563-3.0028c-.37812-.27108-.77145-.5544-1.15608-.83357l-2.97358-1.79726-.00277,4.4583C26.94417,239.94884,26.7314,242.35163,29.46159,244.51336Z" transform="translate(-8.03165 -204.9609)" style="fill:#f4782c"/><path d="M8.08847,240.76879v-14.195a3.8,3.8,0,0,1-.05018-.43614.74469.74469,0,0,1,.05018-.27957v-4.97716a.73565.73565,0,0,1,0-.567v-.69315a.75653.75653,0,0,1,1.51306,0v.58771L12.97,222.2191a5.06136,5.06136,0,0,1,1.25091.99271V214.5366a.75643.75643,0,0,1,1.51286,0v8.74747a5.191,5.191,0,0,1,1.37813-1.062l3.57078-2.0247v-10.076a.75633.75633,0,0,1,1.51267,0v10.17651a.73586.73586,0,0,1,0,.5927V225.844a.75073.75073,0,0,1,.05235.294,3.6019,3.6019,0,0,1-.05235.43515v14.19563c0,.01579-.0081.029-.00869.04462l-.00079,1.03437c.01146.11708.27164,2.87624-2.83331,5.21428-.79812.6006-2.99037,2.09835-3.61879,2.52639v6.98213a.75643.75643,0,0,1-1.51286,0v-6.99931c-.60728-.43574-2.67448-1.92224-3.43052-2.52106a6.22933,6.22933,0,0,1-2.69621-5.12089v-1.13111C8.0942,240.78774,8.08847,240.77925,8.08847,240.76879Zm4.913-2.13922a5.1895,5.1895,0,0,1,.98678.72913l.08692.06239.00119-4.604a3.57581,3.57581,0,0,0-1.91489-3.10586l-2.5599-1.83359V235.348a.71161.71161,0,0,1,.07448.111,6.17639,6.17639,0,0,0,2.00359,2.21089c.2588.20217.68966.51985,1.16181.863Zm4.07711.003.20249-.11609c.49388-.34137.94273-.65628,1.21377-.85746a6.30352,6.30352,0,0,0,2.11185-2.21286.69825.69825,0,0,1,.07606-.10741v-5.50392l-2.84378,1.93053a3.4645,3.4645,0,0,0-1.94235,3.08513v4.61309c.047-.032.10016-.06851.14876-.10148A5.32362,5.32362,0,0,1,17.07854,238.63253Zm-4.86515-15.10364-2.61185-1.559v4.48653a4.934,4.934,0,0,0,2.05673,2.9799l2.41687,1.75126.00119-4.5888A3.52432,3.52432,0,0,0,12.21339,223.52889Zm5.62553.01915a3.46389,3.46389,0,0,0-1.94235,3.08474v4.59769l2.62-1.805a4.94333,4.94333,0,0,0,2.16617-2.97457v-4.51516Zm-1.94235,24.09684c.8884-.61146,2.03559-1.40673,2.54607-1.79074,2.38546-1.79647,2.2448-3.76826,2.23393-3.92483v-3.6186l-2.59506,1.49c-.352.24265-.71139.489-1.05691.72439a3.48117,3.48117,0,0,0-1.128,2.51652Zm-4.1664-1.77988c.47057.37217,1.51267,1.13407,2.345,1.73645l.00119-4.59808a3.59088,3.59088,0,0,0-1.08674-2.49934c-.325-.23238-.66161-.47523-.99113-.71452l-2.392-1.44523-.00237,3.65493A4.78416,4.78416,0,0,0,11.73018,245.865Z" transform="translate(-8.03165 -204.9609)" style="fill:#f4782c"/><polyline points="43.379 64.951 54.383 50.272 67.745 64.951" style="fill:none;stroke:#f4782c;stroke-linecap:round;stroke-linejoin:round;stroke-width:0.699999988079071px"/><polyline points="59.72 56.135 63.186 52.159 71.046 60.648" style="fill:none;stroke:#f4782c;stroke-linecap:round;stroke-linejoin:round;stroke-width:0.699999988079071px"/></svg>