<svg id="l1" xmlns="http://www.w3.org/2000/svg" viewBox="0 0 28.25974 32.26772"><title>feature2</title><path d="M72.8218,230.176l-2.6742-14.1084a1.08416,1.08416,0,0,0,.0853-1.9902,4.774,4.774,0,0,0-9.5354-.0581,1.084,1.084,0,0,0-.0611,2.0486l-2.595,13.9095a3.22854,3.22854,0,0,0,.1031,2.6482,2.27659,2.27659,0,0,0,2.0171.8571l10.489-.0005a2.73807,2.73807,0,0,0,1.9608-.9854A2.591,2.591,0,0,0,72.8218,230.176Zm-7.3581-19.9875a4.11318,4.11318,0,0,1,4.0928,3.7746H61.371A4.11309,4.11309,0,0,1,65.4637,210.1885Zm-4.4376,4.4453h8.7308a.41935.41935,0,0,1,0,.8387H61.0261a.41935.41935,0,0,1,0-.8387Zm11.0409,17.471a2.08377,2.08377,0,0,1-1.4304.7073H60.1616a1.665,1.665,0,0,1-1.4631-.5637,2.67063,2.67063,0,0,1-.0201-2.0601.34793.34793,0,0,0,.0171-.0594l2.6091-13.9858H69.479l2.6919,14.1917A2.00611,2.00611,0,0,1,72.067,232.1048Z" transform="translate(-52.79208 -203.37742)" style="fill:#f4782c"/><circle cx="12.59944" cy="7.87285" r="0.48425" style="fill:#f4782c"/><circle cx="10.80514" cy="8.69835" r="0.48425" style="fill:#f4782c"/><circle cx="14.63334" cy="8.69835" r="0.48425" style="fill:#f4782c"/><line x1="24.93704" y1="32.06012" x2="0.2655" y2="7.38858" style="fill:none;stroke:#f4782c;stroke-miterlimit:10;stroke-width:0.587188798740057px"/><path d="M60.875,226.66667l-.64882,3.08552a1.13853,1.13853,0,0,0,1.11416,1.37281H64.0815" transform="translate(-52.79208 -203.37742)" style="fill:none;stroke:#f4782c;stroke-miterlimit:10;stroke-width:0.587188798740057px"/><path d="M70.04167,216.79167" transform="translate(-52.79208 -203.37742)" style="fill:none;stroke:#f4782c;stroke-miterlimit:10;stroke-width:0.587188798740057px"/><path d="M60.20139,206.14847c-4.15241,0-3.86338,4.06016-3.86338,4.06016h4.36334" transform="translate(-52.79208 -203.37742)" style="fill:none;stroke:#f4782c;stroke-miterlimit:10;stroke-width:0.587188798740057px"/><path d="M61.79525,211.542H56.338l-3.24245,15.29058A1.32524,1.32524,0,0,0,54.3125,228.375h4.41229" transform="translate(-52.79208 -203.37742)" style="fill:none;stroke:#f4782c;stroke-miterlimit:10;stroke-width:0.587188798740057px"/><path d="M56.338,211.542a.6.6,0,0,1-.578-.625c-.00044-.23964.02435-.70833.578-.70833" transform="translate(-52.79208 -203.37742)" style="fill:none;stroke:#f4782c;stroke-miterlimit:10;stroke-width:0.587188798740057px"/><rect x="13.99341" y="2.47723" width="8.11992" height="2.3505" rx="1.17525" ry="1.17525" style="fill:none;stroke:#f4782c;stroke-miterlimit:10;stroke-width:0.587188798740057px"/><path d="M73.9652,208.41884s-.05208,3.13952,0,4.64758c.0426,1.23367.535,2.56989,2.45546,4.86127,2.05962,2.45742,5.05824,7.79939-.09822,12.66066H72.66667" transform="translate(-52.79208 -203.37742)" style="fill:none;stroke:#f4782c;stroke-miterlimit:10;stroke-width:0.587188798740057px"/><path d="M68.59432,206.14847V204.5982a.92718.92718,0,0,1,.92718-.92718h3.04321a.92718.92718,0,0,1,.92718.92718v1.33659" transform="translate(-52.79208 -203.37742)" style="fill:none;stroke:#f4782c;stroke-miterlimit:10;stroke-width:0.587188798740057px"/><path d="M73.94229,210.97706H76.3911a4.38,4.38,0,0,1,4.36712,4.36712h0a4.3846,4.3846,0,0,1-3.17065,4.19945" transform="translate(-52.79208 -203.37742)" style="fill:none;stroke:#f4782c;stroke-miterlimit:10;stroke-width:0.587188798740057px"/><path d="M73.94229,213.28011h2.04342a2.17827,2.17827,0,0,1,2.28074,2.04333h0a2.17827,2.17827,0,0,1-2.28074,2.04333" transform="translate(-52.79208 -203.37742)" style="fill:none;stroke:#f4782c;stroke-miterlimit:10;stroke-width:0.587188798740057px"/><path d="M71.166,215.34419" transform="translate(-52.79208 -203.37742)" style="fill:none;stroke:#f4782c;stroke-miterlimit:10;stroke-width:0.587188798740057px"/><line x1="15.16866" y1="4.82774" x2="15.16866" y2="7.38858" style="fill:none;stroke:#f4782c;stroke-miterlimit:10;stroke-width:0.587188798740057px"/><path d="M64.26965,209.90649a4.54389,4.54389,0,0,0-1.0929-2.9397,3.83963,3.83963,0,0,0-2.92285-1.1123l-.05566.00049a.29346.29346,0,0,0,.00293.58691c.02539.001.03516,0,.05273,0a3.28278,3.28278,0,0,1,2.49316.9248,4.00634,4.00634,0,0,1,.93457,2.54834H59.61133a.29346.29346,0,1,0,0,.58691H63.4137A3.10682,3.10682,0,0,1,64.26965,209.90649Z" transform="translate(-52.79208 -203.37742)" style="fill:#f4782c"/></svg>