<svg id="l1" xmlns="http://www.w3.org/2000/svg" viewBox="0 0 34 26.60709"><title>feature3</title><path d="M116.58854,220.22721a43.523,43.523,0,0,1-1.69385-4.803,9.91512,9.91512,0,0,1-.21936-3.57538,2.32794,2.32794,0,0,1,1.39063-2.07465l.33167-1.24146a43.14465,43.14465,0,0,0-7.70679,0l.33167,1.24146a2.32794,2.32794,0,0,1,1.39063,2.07465,9.91512,9.91512,0,0,1-.21936,3.57538,43.523,43.523,0,0,1-1.69385,4.803,25.46439,25.46439,0,0,0-1.5304,10.24127s-.14453,1.19818,2.16479,1.19818h6.81982c2.30933,0,2.16479-1.19818,2.16479-1.19818A25.46439,25.46439,0,0,0,116.58854,220.22721Z" transform="translate(-90.25 -208.06534)" style="fill:none;stroke:#f4782c;stroke-miterlimit:10;stroke-width:0.587188798740057px"/><polygon points="19.929 12.746 19.929 15.476 22.294 16.842 24.659 15.476 24.659 12.746 22.294 11.381 19.929 12.746" style="fill:none;stroke:#f4782c;stroke-miterlimit:10;stroke-width:0.587188798740057px"/><line x1="19.29981" y1="19.4471" x2="25.28864" y2="19.4471" style="fill:none;stroke:#f4782c;stroke-miterlimit:10;stroke-width:0.587188798740057px"/><line x1="20.25709" y1="20.86377" x2="24.33137" y2="20.86377" style="fill:none;stroke:#f4782c;stroke-miterlimit:10;stroke-width:0.587188798740057px"/><line x1="20.28986" y1="3.78346" x2="24.2986" y2="3.78346" style="fill:none;stroke:#f4782c;stroke-miterlimit:10;stroke-width:0.587188798740057px"/><rect x="4" y="6.80966" width="18.25" height="19.50384" rx="1.83167" ry="1.83167" style="fill:#fff;stroke:#f4782c;stroke-miterlimit:10;stroke-width:0.587188798740057px"/><line x1="4" y1="10.62216" x2="22.25" y2="10.62216" style="fill:none;stroke:#f4782c;stroke-miterlimit:10;stroke-width:0.587188798740057px"/><circle cx="7.86248" cy="13.79715" r="1.23748" style="fill:none;stroke:#f4782c;stroke-miterlimit:10;stroke-width:0.587188798740057px"/><circle cx="12.87729" cy="13.79715" r="1.23748" style="fill:none;stroke:#f4782c;stroke-miterlimit:10;stroke-width:0.587188798740057px"/><circle cx="17.89209" cy="13.79715" r="1.23748" style="fill:none;stroke:#f4782c;stroke-miterlimit:10;stroke-width:0.587188798740057px"/><circle cx="7.86248" cy="18.20962" r="1.23748" style="fill:none;stroke:#f4782c;stroke-miterlimit:10;stroke-width:0.587188798740057px"/><circle cx="12.87729" cy="18.20962" r="1.23748" style="fill:none;stroke:#f4782c;stroke-miterlimit:10;stroke-width:0.587188798740057px"/><circle cx="17.89209" cy="18.20962" r="1.23748" style="fill:none;stroke:#f4782c;stroke-miterlimit:10;stroke-width:0.587188798740057px"/><circle cx="7.86248" cy="22.62209" r="1.23748" style="fill:none;stroke:#f4782c;stroke-miterlimit:10;stroke-width:0.587188798740057px"/><circle cx="12.87729" cy="22.62209" r="1.23748" style="fill:none;stroke:#f4782c;stroke-miterlimit:10;stroke-width:0.587188798740057px"/><circle cx="17.89209" cy="22.62209" r="1.23748" style="fill:none;stroke:#f4782c;stroke-miterlimit:10;stroke-width:0.587188798740057px"/><line x1="7.0625" y1="8.43466" x2="7.0625" y2="5.62216" style="fill:none;stroke:#f4782c;stroke-miterlimit:10;stroke-width:0.587188798740057px"/><line x1="9.29057" y1="8.43466" x2="9.29057" y2="5.62216" style="fill:none;stroke:#f4782c;stroke-miterlimit:10;stroke-width:0.587188798740057px"/><line x1="11.51864" y1="8.43466" x2="11.51864" y2="5.62216" style="fill:none;stroke:#f4782c;stroke-miterlimit:10;stroke-width:0.587188798740057px"/><line x1="13.7467" y1="8.43466" x2="13.7467" y2="5.62216" style="fill:none;stroke:#f4782c;stroke-miterlimit:10;stroke-width:0.587188798740057px"/><line x1="15.97477" y1="8.43466" x2="15.97477" y2="5.62216" style="fill:none;stroke:#f4782c;stroke-miterlimit:10;stroke-width:0.587188798740057px"/><line x1="18.20284" y1="8.43466" x2="18.20284" y2="5.62216" style="fill:none;stroke:#f4782c;stroke-miterlimit:10;stroke-width:0.587188798740057px"/><line y1="19.4471" x2="4" y2="19.4471" style="fill:none;stroke:#f4782c;stroke-miterlimit:10;stroke-width:0.587188798740057px"/><line x1="27.9026" y1="19.4471" x2="34" y2="19.4471" style="fill:none;stroke:#f4782c;stroke-miterlimit:10;stroke-width:0.587188798740057px"/></svg>