<svg id="Layer_1" data-name="Layer 1" xmlns="http://www.w3.org/2000/svg" xmlns:xlink="http://www.w3.org/1999/xlink" viewBox="0 0 26.61248 26.83273"><defs><clipPath id="clip-path" transform="translate(-1.42656 -5.09089)"><rect x="1" y="9.00041" width="30.939" height="15.318" transform="translate(-6.95617 16.52512) rotate(-45)" fill="none"/></clipPath></defs><title>fish-icon</title><g clip-path="url(#clip-path)"><path d="M25.10808,10.69213a.795.795,0,1,0-1.12571.00141.7953.7953,0,0,0,1.12571-.00141" transform="translate(-1.42656 -5.09089)" fill="#c2c2c2"/><path d="M9.75107,31.77459a.51066.51066,0,0,0,.58407.09758.50411.50411,0,0,0,.28072-.51972c-.18385-1.46371-.29062-3.06672-.40447-4.76307-.05162-.763-.1096-1.55634-.17183-2.35113A14.80425,14.80425,0,0,0,27.539,5.94822a.50808.50808,0,0,0-.36062-.36062A14.81041,14.81041,0,0,0,8.87072,23.01424c-1.0246-.04879-2.093-.08485-3.1742-.11526-1.27-.03818-2.54063-.07566-3.71938-.14a.51225.51225,0,0,0-.3875.14849l-.01343.01343a.50936.50936,0,0,0-.00071.72054.56093.56093,0,0,0,.11526.087ZM26.629,6.49765a13.83869,13.83869,0,0,1-.96662,9.23835L17.39277,7.46638A13.87609,13.87609,0,0,1,26.629,6.49765M13.59207,10.1442a13.676,13.676,0,0,1,2.85459-2.18425l8.72358,8.72358a13.77212,13.77212,0,0,1-15.2233,6.49619A13.8504,13.8504,0,0,1,13.59207,10.1442M5.66682,23.91581c1.13632.03323,2.27193.06576,3.34179.11879.07071.89378.13011,1.76918.18738,2.62266.07778,1.1738.15415,2.30375.25456,3.37856L3.24,23.83661c.79337.03111,1.60938.05515,2.42679.0792" transform="translate(-1.42656 -5.09089)" fill="#c2c2c2"/></g></svg>