<svg id="Layer_1" data-name="Layer 1" xmlns="http://www.w3.org/2000/svg" xmlns:xlink="http://www.w3.org/1999/xlink" width="24.71953" height="24.96586" viewBox="0 0 24.71953 24.96586">
  <defs>
    <clipPath id="clip-path" transform="translate(-1.36543 -4.44327)">
      <rect x="0.91167" y="8.0828" width="28.76" height="14.24" transform="translate(-6.27117 15.26564) rotate(-45)" fill="none"/>
    </clipPath>
  </defs>
  <title>fish-icon</title>
  <g clip-path="url(#clip-path)">
    <g>
      <path d="M23.3244,9.65908a.74.74,0,1,0-1.04652,0h0a.74.74,0,0,0,1.04652,0" transform="translate(-1.36543 -4.44327)" fill="#c2c2c2"/>
      <path d="M9.04791,29.253a.49607.49607,0,0,0,.84853-.396c-.16971-1.35765-.27577-2.84964-.38184-4.42649l-.16263-2.185A13.76,13.76,0,0,0,25.61543,5.24673a.47.47,0,0,0-.33234-.33234A13.77,13.77,0,0,0,8.263,21.11421c-.95459-.0495-1.94454-.07778-2.94156-.11314s-2.36174-.07071-3.45775-.13435a.48.48,0,0,0-.36062.13435h0a.47.47,0,0,0,0,.66468.52.52,0,0,0,.09192.09192ZM24.73861,5.75585a12.86,12.86,0,0,1-.898,8.59135L16.14727,6.65387a12.9,12.9,0,0,1,8.59135-.898m-12.141,3.41533a12.71,12.71,0,0,1,2.65165-2.0294l8.10344,8.10344A12.8,12.8,0,0,1,9.23176,21.2627a12.87,12.87,0,0,1,3.41533-12.141M5.279,21.92031c1.05359.03536,2.11425.06364,3.1042.10607L8.56,24.46589c.07071,1.08894.14849,2.14253.24042,3.13955L3.01629,21.82131,5.272,21.8991" transform="translate(-1.36543 -4.44327)" fill="#c2c2c2"/>
    </g>
  </g>
</svg>
