<svg id="Layer_1" data-name="Layer 1" xmlns="http://www.w3.org/2000/svg" viewBox="0 0 456.27919 456.28055"><title>insta-icon</title><path d="M-297.47108-111.02709c60.91574,0,68.13017.23286,92.18781,1.3298,22.24248,1.01512,34.323,4.73258,42.36228,7.85627a70.68825,70.68825,0,0,1,26.232,17.06545,70.66022,70.66022,0,0,1,17.06545,26.232c3.12358,8.03933,6.84115,20.1198,7.85616,42.36228,1.097,24.05765,1.3299,31.27208,1.3299,92.18787,0,60.91758-.23286,68.132-1.3299,92.18792-1.015,22.24427-4.73258,34.32469-7.85616,42.36408A70.674,70.674,0,0,1-136.689,236.79048a70.68691,70.68691,0,0,1-26.232,17.06545c-8.03933,3.12369-20.1198,6.84115-42.36228,7.85453-24.05417,1.09867-31.26676,1.3298-92.18781,1.3298s-68.13386-.23113-92.18792-1.3298c-22.24259-1.01338-34.323-4.73084-42.36228-7.85453a70.68691,70.68691,0,0,1-26.232-17.06545,70.71687,70.71687,0,0,1-17.06545-26.23193c-3.12369-8.03938-6.84115-20.1198-7.85627-42.36408-1.09693-24.05591-1.3298-31.27034-1.3298-92.18792,0-60.91579.23286-68.13022,1.3298-92.18787,1.01512-22.24248,4.73258-34.323,7.85627-42.36228a70.7031,70.7031,0,0,1,17.06545-26.232,70.68825,70.68825,0,0,1,26.232-17.06545c8.03933-3.12369,20.11969-6.84115,42.36228-7.85627,24.05765-1.09693,31.27208-1.3298,92.18792-1.3298m0-41.10541c-61.95939,0-69.72853.2614-94.06179,1.37255-24.28346,1.10941-40.86712,4.96544-55.37779,10.60484a111.81009,111.81009,0,0,0-40.40844,26.31369A111.82544,111.82544,0,0,0-513.63291-73.433c-5.641,14.51252-9.49717,31.09618-10.60473,55.37964-1.11115,24.33316-1.37255,32.10055-1.37255,94.05989,0,61.96113.2614,69.72853,1.37255,94.06174,1.10757,24.28351,4.9637,40.86712,10.60473,55.37964a111.82434,111.82434,0,0,0,26.3138,40.40839,111.81041,111.81041,0,0,0,40.40844,26.3138c14.51068,5.63929,31.09434,9.49543,55.37779,10.60479,24.33326,1.10936,32.1024,1.37244,94.06179,1.37244,61.95917,0,69.72831-.26308,94.06157-1.37244,24.28357-1.10936,40.86723-4.9655,55.3779-10.60479a111.81224,111.81224,0,0,0,40.40844-26.3138,111.82576,111.82576,0,0,0,26.3138-40.40839c5.641-14.51252,9.49706-31.09613,10.60473-55.37964,1.11115-24.33321,1.37244-32.10061,1.37244-94.06174,0-61.95934-.26129-69.72674-1.37244-94.05989C-71.8123-42.33679-75.66833-58.92045-81.30936-73.433a111.82686,111.82686,0,0,0-26.3138-40.40844,111.81192,111.81192,0,0,0-40.40844-26.31369c-14.51068-5.6394-31.09434-9.49543-55.3779-10.60484-24.33326-1.11115-32.1024-1.37255-94.06157-1.37255" transform="translate(525.61138 152.1325)" style="fill:#fff"/><path d="M-297.47108-41.14486A117.15317,117.15317,0,0,0-414.62347,76.00743,117.152,117.152,0,0,0-297.47108,193.15971,117.152,117.152,0,0,0-180.3189,76.00743,117.15312,117.15312,0,0,0-297.47108-41.14486m0,193.19921a76.04687,76.04687,0,0,1-76.047-76.04693,76.04686,76.04686,0,0,1,76.047-76.04688A76.04684,76.04684,0,0,1-221.4242,76.00743a76.04685,76.04685,0,0,1-76.04688,76.04693" transform="translate(525.61138 152.1325)" style="fill:#fff"/><path d="M-148.31264-45.77419a27.37731,27.37731,0,0,1-27.377,27.377,27.37842,27.37842,0,0,1-27.377-27.377,27.37729,27.37729,0,0,1,27.377-27.37688,27.37617,27.37617,0,0,1,27.377,27.37688" transform="translate(525.61138 152.1325)" style="fill:#fff"/><rect y="0.00244" width="456.27811" height="456.27811" style="fill:none"/></svg>