<svg id="Слой_1" data-name="Слой 1" xmlns="http://www.w3.org/2000/svg" viewBox="0 0 70.93 73.52"><defs><style>.cls-1{fill:#fff;}</style></defs><title>logo-white</title><path class="cls-1" d="M572.91,78c0,6,0,12,0,18a2,2,0,0,1-1.27,2.15c-11.07,5.48-22.1,11-33.17,16.51a2.61,2.61,0,0,1-2,0C525.3,109.18,514.17,103.6,503,98.06a1.55,1.55,0,0,1-1-1.59q0-18.48,0-37a1.51,1.51,0,0,1,1-1.59c11.24-5.46,22.45-11,33.69-16.41a2.15,2.15,0,0,1,1.65,0c11.15,5.41,22.28,10.88,33.44,16.29a1.8,1.8,0,0,1,1.15,1.93C572.89,65.87,572.91,72,572.91,78Zm-60.11.09c0,3.89,0,7.78,0,11.66a2,2,0,0,0,.88,1.47q11.45,5.67,23,11.2a2,2,0,0,0,1.54,0q11.5-5.57,22.95-11.25a1.84,1.84,0,0,0,.86-1.35q.08-11.8,0-23.61a1.84,1.84,0,0,0-.87-1.34q-11.39-5.62-22.85-11.12a2.19,2.19,0,0,0-1.67,0c-7.63,3.67-15.24,7.41-22.87,11.09a1.52,1.52,0,0,0-1,1.6C512.82,70.36,512.8,74.25,512.8,78.14Z" transform="translate(-502 -41.37)"/><path class="cls-1" d="M515.37,78.07c0-3.28,0-6.56,0-9.83a1.79,1.79,0,0,1,1.16-1.93q9.93-4.77,19.8-9.67a2.24,2.24,0,0,1,2.22-.05q9.94,4.92,19.93,9.74a1.7,1.7,0,0,1,1.13,1.81q-.06,10,0,20a1.72,1.72,0,0,1-1.15,1.8q-10,4.86-19.88,9.83a2.18,2.18,0,0,1-2.21,0q-9.92-5-19.88-9.83A1.7,1.7,0,0,1,515.34,88C515.4,84.72,515.37,81.39,515.37,78.07Zm43.58.05c0-3.23,0-6.46,0-9.69a1.61,1.61,0,0,0-1-1.72c-6.53-3.15-13-6.35-19.57-9.49a2.34,2.34,0,0,0-1.79,0c-6.54,3.14-13,6.35-19.57,9.5a1.63,1.63,0,0,0-1.07,1.71q0,9.69,0,19.38a1.54,1.54,0,0,0,1,1.61c6.55,3.21,13.08,6.47,19.65,9.65a2.3,2.3,0,0,0,1.77,0c6.52-3.17,13-6.41,19.53-9.58a1.7,1.7,0,0,0,1.1-1.83C558.91,84.49,558.95,81.3,558.95,78.12Z" transform="translate(-502 -41.37)"/><path class="cls-1" d="M541.18,78.49v2.33h6.34A2.32,2.32,0,0,1,549.88,84a3.82,3.82,0,0,0-.24,1.92A3.77,3.77,0,0,0,550.9,88c.37.24,1.3-.38,2.17-.69a10.81,10.81,0,0,1-.78,3.14A3.2,3.2,0,0,1,550,91.86a2.66,2.66,0,0,1-2.11-1.4,34.43,34.43,0,0,1-.8-5.48,6.82,6.82,0,0,1,.13-1.36h-6v3.48h1.9a4.38,4.38,0,0,1,.11-1.39,1.59,1.59,0,0,1,.91-.87c.21-.05.72.45.83.79A5.24,5.24,0,0,1,543,91.44a9.67,9.67,0,0,0-11.15,0A5.55,5.55,0,0,1,530,85.52a1.24,1.24,0,0,1,.93-.67c.28,0,.63.51.75.85a5.61,5.61,0,0,1,.1,1.43h2V83.61h-6c0,1.68.05,3.34,0,5a5.18,5.18,0,0,1-.58,1.86,2.45,2.45,0,0,1-4.56-.12,24,24,0,0,1-.65-2.84c.94.14,1.88.59,2.51.32,1-.46,1.09-1.64.92-2.71-.06-.37-.16-.73-.2-1.11-.05-.58-.29-1.29,0-1.72a2.46,2.46,0,0,1,2.44-1.5c2,.13,4.1,0,6.24,0V78.49c-1.69,0-3.32,0-4.94,0a1.31,1.31,0,0,1-1.48-.93c-.47-1.22-1.07-2.39-1.61-3.59-1.06-2.34-.16-3.74,2.39-3.76h1.5V67.36c-1.27,0-2.52.07-3.77,0a1.65,1.65,0,0,1-1.22-.78,1.92,1.92,0,0,0-2.1-1.47h7l-.17-.36c.68-.51,1.32-1.34,2.05-1.44.51-.07,1.16.85,1.75,1.33l-.21.42H542l-.19-.35c.63-.5,1.25-1.39,1.89-1.4s1.29.85,1.94,1.33l-.2.37h7.14a2.21,2.21,0,0,0-2.27,1.74c-.09.3-.78.58-1.21.61-1.21.08-2.42,0-3.75,0v2.86H547c2.35,0,3.31,1.49,2.34,3.61-.55,1.19-1.14,2.36-1.61,3.59a1.46,1.46,0,0,1-1.66,1.1C544.46,78.44,542.88,78.49,541.18,78.49Zm.89-10.94h-9.25v2.57h9.25Zm-14.65,4.92c1.28,3.76,1.28,3.76,4.82,3.75.19,0,.37,0,.56,0,1.16.09,1.2-.5.92-1.26-.89-.49-2.16.42-2.81-1.15a11.25,11.25,0,0,0,2,0c.34-.07.63-.44.94-.67-.28-.21-.56-.6-.84-.61C531.17,72.45,529.35,72.48,527.41,72.48ZM541.18,75c-.28.95.08,1.29,1,1.23s2,0,2.95,0a1.26,1.26,0,0,0,.93-.4c.53-1,.94-2.09,1.48-3.33-2.05,0-3.87,0-5.68,0-.32,0-.61.59-.92.9l.3.33,2.69.17C543.36,75.44,542.06,74.42,541.18,75Z" transform="translate(-502 -41.37)"/></svg>