<svg id="Icons" xmlns="http://www.w3.org/2000/svg" viewBox="0 0 422.92 290.91"><title>mail-icon</title><g id="_6" data-name="6"><path d="M1705.89,1672.07H1360.43a32.26,32.26,0,0,1-32.23-32.23V1426.39a32.26,32.26,0,0,1,32.23-32.23h345.47a32.26,32.26,0,0,1,32.23,32.23v213.45A32.26,32.26,0,0,1,1705.89,1672.07Zm-345.47-263.91a18.25,18.25,0,0,0-18.23,18.23v213.45a18.25,18.25,0,0,0,18.23,18.23h345.47a18.25,18.25,0,0,0,18.23-18.23V1426.39a18.25,18.25,0,0,0-18.23-18.23Z" transform="translate(-1321.7 -1387.66)" style="fill:#222;stroke:#000;stroke-miterlimit:10;stroke-width:13px"/><path d="M1533.16,1571.78a7,7,0,0,1-3.87-1.17l-194.68-129.07a7,7,0,0,1,7.74-11.67l190.82,126.5L1724,1429.87a7,7,0,0,1,7.74,11.67L1537,1570.61A7,7,0,0,1,1533.16,1571.78Z" transform="translate(-1321.7 -1387.66)" style="fill:#222;stroke:#000;stroke-miterlimit:10;stroke-width:13px"/></g></svg>