<svg id="Layer_1" data-name="Layer 1" xmlns="http://www.w3.org/2000/svg" xmlns:xlink="http://www.w3.org/1999/xlink" viewBox="0 0 22.37298 26.99374"><defs><clipPath id="clip-path" transform="translate(-0.00003 0.00003)"><rect y="0.00031" width="22.373" height="26.994" fill="none"/></clipPath></defs><title>meat-icon</title><g clip-path="url(#clip-path)"><path d="M19.2268,1.94871l-.591-.403c-.304-.205-.576-.383-.627-.415a7.64732,7.64732,0,0,0-9.194.901,11.43183,11.43183,0,0,0-3.221,5.017,7.59327,7.59327,0,0,0-.11,3.392,10.82371,10.82371,0,0,1-1.809,8.274l-.934,1.574a2.7926,2.7926,0,0,0-2.301,1.117,2.55655,2.55655,0,0,0-.398,1.876,1.99517,1.99517,0,0,0,.865,1.299,2.71939,2.71939,0,0,0,1.882.51,2.63908,2.63908,0,0,0,1.182,1.552,1.98624,1.98624,0,0,0,1.129.351,2.49523,2.49523,0,0,0,1.988-1.114,2.77345,2.77345,0,0,0,.167-2.552l1.122-1.483a10.83644,10.83644,0,0,1,6.97-4.769,7.56143,7.56143,0,0,0,3.092-1.368,11.46673,11.46673,0,0,0,3.426-4.816,7.73814,7.73814,0,0,0,.367-4.225,7.66026,7.66026,0,0,0-3.005-4.718m-11.676,19.304-1.29,1.701a.50748.50748,0,0,0-.039.555,1.94135,1.94135,0,0,1,.021,1.803,1.32893,1.32893,0,0,1-1.703.488,1.49529,1.49529,0,0,1-.81-1.356.51.51,0,0,0-.693-.469,1.48248,1.48248,0,0,1-1.562-.238.98876.98876,0,0,1-.434-.65,1.56083,1.56083,0,0,1,.243-1.112,1.77879,1.77879,0,0,1,1.502-.668c.102,0,.167.006.177.007a.50419.50419,0,0,0,.499-.245l1.072-1.81a13.19689,13.19689,0,0,0,1.359-2.615l3.551,2.389a12.99014,12.99014,0,0,0-1.893,2.22m13.342-10.656a10.5052,10.5052,0,0,1-3.054,4.288,6.53628,6.53628,0,0,1-2.688,1.192,11.43079,11.43079,0,0,0-4.909,2.265l-4.008-2.695a11.36169,11.36169,0,0,0,.25-5.402,6.59047,6.59047,0,0,1,.097-2.951,10.50153,10.50153,0,0,1,2.874-4.473,6.722,6.722,0,0,1,3.28-1.681,6.63776,6.63776,0,0,1,4.738.856c.046.029.305.199.596.395l.586.398a6.62858,6.62858,0,0,1,2.579,4.074,6.82214,6.82214,0,0,1-.341,3.734" transform="translate(-0.00003 0.00003)" fill="#c2c2c2"/></g></svg>