<svg id="Layer_1" data-name="Layer 1" xmlns="http://www.w3.org/2000/svg" viewBox="0 0 116.89028 36.88979"><title>re-store</title><path d="M102.75432,60.62733c-.16241,1.53966-.79637,3.3885-2.03309,3.52907H100.615c-.38728,0-2.36105-.31233-3.25112-6.44292-.67148-4.64086-.27485-7.37046,1.11494-7.6765,1.18051-.26235,1.83635,1.06807,1.87383,3.71022v.153l1.46785-.17176.49033-4.10685-.03123-.04373a4.42313,4.42313,0,0,0-3.76954-1.73955,4.19757,4.19757,0,0,0-3.41667,2.68583c-.77763,1.74894-.97752,4.26611-.59338,7.49539.89011,7.49535,3.39169,9.05689,5.33423,9.05689a3.86141,3.86141,0,0,0,.456-.02809,4.3317,4.3317,0,0,0,3.41663-2.31733l.47784-4.3723-1.40538.16551Z" transform="translate(-71.55486 -46.11021)" style="fill:#e30613"/><polygon points="31.705 4.052 35.194 3.205 36.568 19.714 39.476 19.47 38.101 2.962 41.153 3.249 41.537 0.588 32.071 1.366 31.705 4.052" style="fill:#e30613"/><path d="M75.78974,52.05763l-.01249-.00315-4.22239,1.12429L76.42374,71.4675l2.79512-.737L74.88718,54.50609a4.50049,4.50049,0,0,1,.67458-.23737c1.87383-.49653,3.1949.42476,3.79452,2.66713.65274,2.43287-.0937,4.22549-1.99251,4.79078l.87757,1.72705C81.54869,62.44494,83.17894,59.3,82.242,55.80218,81.32381,52.37616,79.21576,51.15192,75.78974,52.05763Z" transform="translate(-71.55486 -46.11021)" style="fill:#e30613"/><polygon points="16.374 13.596 19.847 13.218 19.847 10.651 16.012 11.638 15.013 6.169 19.675 5.879 19.775 3.034 11.733 4.489 15.053 22.734 15.078 22.868 23.111 21.407 23.208 18.558 17.542 20.148 16.374 13.596" style="fill:#e30613"/><path d="M142.00508,46.536l-5.21864,18.42611,2.6421.13432,1.06811-4.58779,3.4666.17486.62461,4.68463,3.10745.15616L144.6035,46.66718Zm-1.015,11.849,1.62086-7.43917h.1718l.89631,7.57345Z" transform="translate(-71.55486 -46.11021)" style="fill:#e30613"/><polygon points="103.499 4.189 101.187 3.821 95.091 14.423 94.876 14.33 96.887 3.109 94.004 2.656 91.019 20.938 90.997 21.072 93.292 21.441 99.479 10.676 99.695 10.744 97.39 21.959 97.362 22.097 100.251 22.565 103.477 4.336 103.499 4.189" style="fill:#e30613"/><path d="M119.10047,46.11439a4.24292,4.24292,0,0,0-3.63526,2.38294c-.93689,1.69268-1.38039,4.18491-1.2773,7.4048.21858,6.62712,1.80511,9.45663,5.3092,9.45663h.22487c1.955-.06557,5.19366-1.421,4.91881-9.79079C124.416,48.51917,122.91373,45.9926,119.10047,46.11439Zm1.76768,16.64288a1.41166,1.41166,0,0,1-1.06811.456c-1.52092,0-2.40164-2.40478-2.68583-7.35172-.228-3.97253.05307-6.24613.887-7.14869a1.32717,1.32717,0,0,1,.97752-.45285h.04683c1.54595,0,2.39853,2.33607,2.68587,7.35172C121.95186,59.606,121.68015,61.87655,120.86815,62.75727Z" transform="translate(-71.55486 -46.11021)" style="fill:#e30613"/><polygon points="86.431 1.756 84.607 17.996 81.484 17.684 82.952 1.525 82.952 1.391 80.047 1.104 78.358 19.67 86.134 20.445 85.666 23.799 87.277 23.958 89.17 18.446 87.505 18.28 89.329 2.04 86.431 1.756" style="fill:#e30613"/><path d="M180.13154,52.96953l-.01249-.0031a5.7251,5.7251,0,0,0-2.40478,3.84135,5.07074,5.07074,0,0,0,1.74265,5.36546l-5.46536,7.04564,3.273.79951,5.34667-8.37606-.04683-.21863c-1.61152-.709-2.24862-2.27671-1.74579-4.30049.5559-2.233,1.70517-3.05433,3.62587-2.58274a4.18235,4.18235,0,0,1,.67144.22483l-4.01935,16.19313,2.81076.68707,4.53782-18.26995-3.61652-.887A5.9497,5.9497,0,0,0,180.13154,52.96953Z" transform="translate(-71.55486 -46.11021)" style="fill:#e30613"/><path d="M131.99251,46.18h-4.40039V64.97151h2.892V48.31618a4.51371,4.51371,0,0,1,.72141-.05622c1.94883,0,2.97942,1.22738,2.97942,3.54781,0,2.51717-1.18365,4.06-3.16677,4.12244l.39973,1.89257a6.01225,6.01225,0,0,0,5.8464-6.37106C137.258,47.90391,135.53407,46.18,131.99251,46.18Z" transform="translate(-71.55486 -46.11021)" style="fill:#e30613"/><path d="M134.416,75.33286a3.90214,3.90214,0,0,0-4.188,4.02251c0,2.689,1.96754,3.64462,3.807,3.64462a3.98048,3.98048,0,0,0,4.22551-4.06A3.5492,3.5492,0,0,0,134.416,75.33286Zm-.04684,6.81142c-1.07434,0-2.32981-.79951-2.32981-3.04812,0-2.15492,1.09307-2.92319,2.11744-2.92319,1.45847,0,2.29546,1.1243,2.29546,3.08247C136.446,80.9825,135.61215,82.14428,134.36917,82.14428Zm-9.40044-6.81142a3.90371,3.90371,0,0,0-4.188,4.02251c0,2.689,1.96754,3.64462,3.807,3.64462a3.98048,3.98048,0,0,0,4.22551-4.06A3.53828,3.53828,0,0,0,124.96872,75.33286Zm-.04684,6.81142c-1.07434,0-2.32981-.79951-2.32981-3.04812,0-2.15492,1.09307-2.92319,2.11744-2.92319,1.45847,0,2.29233,1.1243,2.29233,3.08247-.00312,1.72706-.84011,2.88884-2.08309,2.88884Zm-5.55594-.86821v1.51469h-6.58031v-.79951l.09057-.04685c2.86073-1.51469,4.491-3.03875,4.491-4.40978,0-.74329-.57464-1.11806-1.371-1.11806a2.96066,2.96066,0,0,0-2.27047,1.09l-.1218.13429-.56527-.49969.0812-.11555a4.29735,4.29735,0,0,1,3.56967-1.87384c1.56154,0,2.49846.76515,2.49846,2.04561,0,1.92069-2.18615,3.32607-3.43538,3.97255l.01874.07183h3.59153Zm24.76283-4.45038a4.08809,4.08809,0,0,0-2.39852.787l-.04684-.0406c.278-2.16116,1.57715-4.2099,3.71021-4.2099a2.49845,2.49845,0,0,1,.78077.11868l.19675.09681.14366-.74954-.14054-.03123a3.92888,3.92888,0,0,0-1.20551-.203c-2.71083,0-5.456,2.12993-5.456,6.19617,0,2.6265,1.41787,4.19741,3.78829,4.19741a3.7452,3.7452,0,0,0,3.71333-3.4791c0-1.5834-1.268-2.68272-3.0856-2.68272Zm-.54029,5.30922c-1.22424,0-2.01126-1.24923-2.01126-3.16367V78.687a3.18865,3.18865,0,0,1,2.10182-.83386,1.68567,1.68567,0,0,1,1.71144,1.9082c0,1.1774-.6371,2.37978-1.802,2.37978Z" transform="translate(-71.55486 -46.11021)" style="fill:#1d1d1b"/></svg>