<svg xmlns="http://www.w3.org/2000/svg" viewBox="0 0 22.5494 24.97743"><path d="M5.33884,25.95984a.50826.50826,0,0,0,.4994-.14411,23.73636,23.73636,0,0,1,7.84-5.35888c.04635.0485.08724.1005.13627.14661a4.124,4.124,0,0,0,6.82732-4.04169A2.29412,2.29412,0,0,0,21.66172,12.27,3.27551,3.27551,0,0,0,20.2691,7.852q-.10983-.05716-.22372-.10593a4.46593,4.46593,0,1,0-7.97532-3.96626,3.69366,3.69366,0,0,0-.91436-.3871A3.78764,3.78764,0,0,0,7.48786,4.41107,2.34624,2.34624,0,0,0,4.517,4.27a2.30768,2.30768,0,0,0-.75363,1.02647A2.32711,2.32711,0,0,0,2.60695,9.80474q.074.01895.14911.03308a3.43155,3.43155,0,0,0,1.036,2.99766,3.30616,3.30616,0,0,0,.763.53743C4.38488,14.3701,2.88289,17.3388.38116,20.748a.5092.5092,0,0,0,.06094.671l4.67583,4.41858A.51291.51291,0,0,0,5.33884,25.95984ZM13.69228,3.10432a3.44941,3.44941,0,0,1,5.1392,4.59819.508.508,0,0,0-.08915.50364.51469.51469,0,0,0,.39445.32708,2.25652,2.25652,0,0,1,1.35888,3.66436.51654.51654,0,0,0-.04714.50547.57768.57768,0,0,0,.38945.3288,1.27371,1.27371,0,0,1,.47936,2.24986,1.28977,1.28977,0,0,1-1.27984.16436.509.509,0,0,0-.64129.71063,3.1061,3.1061,0,1,1-5.80579.9284,2.99786,2.99786,0,0,1,.71948-1.50876.50861.50861,0,0,0-.25063-.83152.54316.54316,0,0,0-.0875-.01478,1.82089,1.82089,0,0,1-1.10484-.4904c.0276-.0514.04216-.10714.06655-.16026.03641-.07729.06871-.15465.09823-.23481a3.05985,3.05985,0,0,0,.11377-.39723c.01742-.08017.03631-.15806.04706-.24a3.01234,3.01234,0,0,0,.02148-.44354c-.001-.0699.005-.13894-.00039-.209a3.06856,3.06856,0,0,0-.11886-.64477,2.332,2.332,0,0,0,2.54012-2.7097,2.364,2.364,0,0,0-.45036-1.03508,2.32785,2.32785,0,0,0-1.19895-.81985,3.85663,3.85663,0,0,0-.033-.82409c-.01322-.09025-.04665-.17475-.06595-.2635a3.77516,3.77516,0,0,0-.13964-.528c-.03715-.09953-.09349-.18893-.13872-.28446A3.71966,3.71966,0,0,0,13.37932,5c-.06154-.0948-.14046-.17691-.21075-.267a3.50881,3.50881,0,0,0-.25442-.32275,3.474,3.474,0,0,1,.77814-1.306ZM8.42351,15.24012a3.01636,3.01636,0,0,0,.99863.49894l.00049.00013a3.02871,3.02871,0,0,0,2.81729-.72371,2.81444,2.81444,0,0,0,.83519.53914,4.029,4.029,0,0,0-.36163.8745L7.64139,18.096Zm-4.54574-5.711A.5083.5083,0,0,0,3.342,8.85233,1.31275,1.31275,0,0,1,2.23063,6.65007l.00054-.00055A1.33575,1.33575,0,0,1,3.86776,6.433a.50871.50871,0,0,0,.77313-.40778,1.28821,1.28821,0,0,1,.49676-.94916,1.30539,1.30539,0,0,1,1.79647.236,1.18031,1.18031,0,0,1,.10493.1566.49688.49688,0,0,0,.43361.26464.50928.50928,0,0,0,.44665-.24166,2.157,2.157,0,0,1,.26617-.3373,2.8237,2.8237,0,0,1,3.82168-.19287c.01762.01564.08034.06943.09957.08252A2.80473,2.80473,0,0,1,12.916,7.65755a.50733.50733,0,0,0,.09551.41864.51284.51284,0,0,0,.38174.19652,1.30092,1.30092,0,0,1,.98326.51113,1.33405,1.33405,0,0,1,.25558.59052,1.29366,1.29366,0,0,1-.23609.99308,1.31755,1.31755,0,0,1-1.65368.39381.51046.51046,0,0,0-.57809.0801,2.20861,2.20861,0,0,0-.25414.27585.50937.50937,0,0,0-.02328.5874,2.02246,2.02246,0,0,1-.08028,2.30753,1.16428,1.16428,0,0,1-.1432.17355,2.0232,2.0232,0,0,1-3.49357-1.35546.5094.5094,0,0,0-.265-.43665.53182.53182,0,0,0-.11532-.04519.50862.50862,0,0,0-.39547.05922,2.46041,2.46041,0,0,1-2.90258-.312A2.41282,2.41282,0,0,1,3.87777,9.52915Zm1.63591,4.16876a3.4279,3.4279,0,0,0,1.74307-.108,3.02875,3.02875,0,0,0,.34628.794L6.40959,18.74133a.50763.50763,0,0,0,.14017.50285.50178.50178,0,0,0,.22207.1236.51146.51146,0,0,0,.28732-.00867l5.47505-1.799a4.10668,4.10668,0,0,0,.51417,2.04094,25.4157,25.4157,0,0,0-7.59623,5.152L1.46608,20.98593c1.89628-2.63472,3.67653-5.66607,4.04758-7.288Z" transform="translate(-0.28271 -0.99897)" fill="#c2c2c2"/><path d="M9.54127,20.626a.50864.50864,0,1,0-.4441-.91523l-.00254.00123A17.04206,17.04206,0,0,0,5.06244,22.771a.50919.50919,0,0,0,.70142.73831A16.13826,16.13826,0,0,1,9.54127,20.626Z" transform="translate(-0.28271 -0.99897)" fill="#c2c2c2"/></svg>