<svg id="Layer" xmlns="http://www.w3.org/2000/svg" viewBox="0 0 23.11481 27.0283"><title>veggie-icon</title><path d="M241.15648,680.55915a.50826.50826,0,0,0,.44678-.2656,23.73664,23.73664,0,0,1,6.2315-7.166c.0571.0352.1098.0752.1689.1074a4.124,4.124,0,0,0,5.5845-5.6357,2.29412,2.29412,0,0,0-.09768-4.4102,3.27551,3.27551,0,0,0-2.707-3.9687,4.46593,4.46593,0,1,0-8.71872-1.8223,3.69369,3.69369,0,0,0-.9825-.1435,3.78762,3.78762,0,0,0-3.2915,1.9121,2.3462,2.3462,0,0,0-2.9101.6142,2.30764,2.30764,0,0,0-.4698,1.1836,2.32711,2.32711,0,1,0,.1729,4.6485,3.43162,3.43162,0,0,0,1.7598,2.6386,3.30526,3.30526,0,0,0,.874.3272c.0874,1.0078-.6157,4.2597-2.1748,8.1904a.5092.5092,0,0,0,.2285.6338l5.6406,3.0937A.51256.51256,0,0,0,241.15648,680.55915Zm2.30718-24.2246a3.44941,3.44941,0,0,1,6.1343,3.1504.508.508,0,0,0,.041.5098.51478.51478,0,0,0,.4643.2168,2.25653,2.25653,0,0,1,2.2407,3.2021.51656.51656,0,0,0,.0821.501.57774.57774,0,0,0,.4599.2197,1.27371,1.27371,0,0,1,1.0323,2.0557,1.28983,1.28983,0,0,1-1.19678.4824.509.509,0,0,0-.44092.8496,3.1061,3.1061,0,1,1-5.3828,2.3653,2.99789,2.99789,0,0,1,.3149-1.6416.50859.50859,0,0,0-.4526-.7412.53873.53873,0,0,0-.0884.0078,1.82088,1.82088,0,0,1-1.1929-.1953c.01372-.0567.01372-.1143.0239-.1719.0157-.084.0274-.167.0357-.252a3.061,3.061,0,0,0,.0097-.4131c-.0034-.082-.0048-.1621-.0151-.2441a3.01371,3.01371,0,0,0-.0913-.4346c-.0186-.0674-.0303-.1357-.05318-.2021a3.06746,3.06746,0,0,0-.27792-.5938,2.332,2.332,0,0,0,1.773-3.2636,2.36384,2.36384,0,0,0-.6973-.8877,2.32774,2.32774,0,0,0-1.3672-.4903,3.85638,3.85638,0,0,0-.2402-.789c-.0356-.084-.0893-.1573-.13038-.2383a3.77348,3.77348,0,0,0-.26852-.4756c-.0611-.0869-.1382-.1592-.2061-.2402a3.719,3.719,0,0,0-.334-.3731c-.0835-.0762-.1806-.1357-.27138-.2051a3.51287,3.51287,0,0,0-.32772-.248A3.474,3.474,0,0,1,243.46367,656.33455Zm-2.0313,13.0733a3.01676,3.01676,0,0,0,1.0923.2304h.0005a3.02877,3.02877,0,0,0,2.543-1.4121,2.814,2.814,0,0,0,.94432.3106,4.029,4.029,0,0,0-.12892.9375l-4.4863,2.8945Zm-5.8413-4.377a.50826.50826,0,0,0-.6894-.5195,1.319,1.319,0,0,1-1.1119-.0723,1.30962,1.30962,0,0,1-.5195-1.7783,1.33576,1.33576,0,0,1,1.5288-.623.50871.50871,0,0,0,.645-.5899,1.28815,1.28815,0,0,1,.2408-1.0439,1.3054,1.3054,0,0,1,1.7978-.2256,1.17655,1.17655,0,0,1,.1411.125.49689.49689,0,0,0,.4864.1465.50924.50924,0,0,0,.3711-.3467,2.15727,2.15727,0,0,1,.1723-.3936,2.82368,2.82368,0,0,1,3.64892-1.1523c.021.0107.09528.0469.11718.0547a2.80475,2.80475,0,0,1,1.4434,2.3242.50731.50731,0,0,0,.1982.3809.513.513,0,0,0,.419.0937,1.30083,1.30083,0,0,1,1.0805.2461,1.33409,1.33409,0,0,1,.3965.5068,1.29366,1.29366,0,0,1,.0225,1.0205,1.31758,1.31758,0,0,1-1.5005.7989.51044.51044,0,0,0-.5391.2236,2.21058,2.21058,0,0,0-.1762.3311.50935.50935,0,0,0,.1259.5742,2.02245,2.02245,0,0,1,.5054,2.2529,1.16464,1.16464,0,0,1-.0947.2041,2.02321,2.02321,0,0,1-3.7227-.4287.50938.50938,0,0,0-.3667-.3555.5327.5327,0,0,0-.123-.0146.50877.50877,0,0,0-.36768.1572,2.46043,2.46043,0,0,1-2.88722.4316A2.41281,2.41281,0,0,1,235.59107,665.03085Zm2.6362,3.6201a3.42753,3.42753,0,0,0,1.65922-.5449,3.0293,3.0293,0,0,0,.53568.6807l-.05368,4.5176a.50761.50761,0,0,0,.26268.4511.50189.50189,0,0,0,.2461.0635.51163.51163,0,0,0,.2758-.081l4.8428-3.1241a4.10669,4.10669,0,0,0,1.0132,1.8448,25.41563,25.41563,0,0,0-6.0479,6.9043l-4.8086-2.6377C237.32157,673.69685,238.27807,670.314,238.22727,668.651Z" transform="translate(-232.09007 -653.53085)" style="fill:#5a5a5a"/><path d="M243.87477,674.33655a.50865.50865,0,1,0-.6631-.7715,17.0411,17.0411,0,0,0-3.1284,3.9785.50919.50919,0,0,0,.86522.5371A16.13937,16.13937,0,0,1,243.87477,674.33655Z" transform="translate(-232.09007 -653.53085)" style="fill:#5a5a5a"/></svg>